<svg width="412" height="102" viewBox="0 0 412 102" fill="none" xmlns="http://www.w3.org/2000/svg">
<path d="M43.0385 3.4644H44.5475V1.95531H43.0385V3.4644ZM43.0385 98V99.5091H44.5475V98H43.0385ZM21.1602 98H19.6511V99.5091H21.1602V98ZM21.1602 21.021H22.6693V19.5119H21.1602V21.021ZM2.2531 21.021H0.744004V22.5301H2.2531V21.021ZM2.2531 3.4644V1.95531H0.744004V3.4644H2.2531ZM41.5294 3.4644V98H44.5475V3.4644H41.5294ZM43.0385 96.4909H21.1602V99.5091H43.0385V96.4909ZM22.6693 98V21.021H19.6511V98H22.6693ZM21.1602 19.5119H2.2531V22.5301H21.1602V19.5119ZM3.76219 21.021V3.4644H0.744004V21.021H3.76219ZM2.2531 4.9735H43.0385V1.95531H2.2531V4.9735ZM95.9246 3.4644H97.4337V1.95531H95.9246V3.4644ZM95.9246 98V99.5091H97.4337V98H95.9246ZM74.0463 98H72.5372V99.5091H74.0463V98ZM74.0463 21.021H75.5554V19.5119H74.0463V21.021ZM55.1392 21.021H53.6301V22.5301H55.1392V21.021ZM55.1392 3.4644V1.95531H53.6301V3.4644H55.1392ZM94.4155 3.4644V98H97.4337V3.4644H94.4155ZM95.9246 96.4909H74.0463V99.5091H95.9246V96.4909ZM75.5554 98V21.021H72.5372V98H75.5554ZM74.0463 19.5119H55.1392V22.5301H74.0463V19.5119ZM56.6483 21.021V3.4644H53.6301V21.021H56.6483ZM55.1392 4.9735H95.9246V1.95531H55.1392V4.9735ZM115.453 95.299L116.52 94.2319L115.453 95.299ZM115.453 76.5269L116.48 77.6328L116.49 77.6231L116.501 77.6132L115.453 76.5269ZM134.09 76.5269L133.043 77.6132L133.053 77.6231L133.063 77.6328L134.09 76.5269ZM134.09 95.299L133.023 94.2319L134.09 95.299ZM124.772 97.5713C121.465 97.5713 118.747 96.4588 116.52 94.2319L114.386 96.3661C117.201 99.181 120.696 100.59 124.772 100.59V97.5713ZM116.52 94.2319C114.301 92.0125 113.181 89.2536 113.181 85.8454H110.163C110.163 90.0001 111.564 93.5436 114.386 96.3661L116.52 94.2319ZM113.181 85.8454C113.181 82.3355 114.307 79.6508 116.48 77.6328L114.426 75.4211C111.558 78.0848 110.163 81.6124 110.163 85.8454H113.181ZM116.501 77.6132C118.724 75.4693 121.448 74.3896 124.772 74.3896V71.3715C120.713 71.3715 117.224 72.7227 114.406 75.4406L116.501 77.6132ZM124.772 74.3896C128.096 74.3896 130.819 75.4693 133.043 77.6132L135.138 75.4406C132.319 72.7227 128.83 71.3715 124.772 71.3715V74.3896ZM133.063 77.6328C135.237 79.6508 136.362 82.3355 136.362 85.8454H139.381C139.381 81.6124 137.986 78.0848 135.117 75.4211L133.063 77.6328ZM136.362 85.8454C136.362 89.2536 135.242 92.0125 133.023 94.2319L135.157 96.3661C137.98 93.5436 139.381 90.0001 139.381 85.8454H136.362ZM133.023 94.2319C130.796 96.4588 128.079 97.5713 124.772 97.5713V100.59C128.847 100.59 132.342 99.181 135.157 96.3661L133.023 94.2319ZM165.56 93.8134L166.367 92.5379H166.367L165.56 93.8134ZM151.11 77.0671L149.741 77.7016L149.745 77.7117L149.75 77.7218L151.11 77.0671ZM151.11 24.5323L149.747 23.8842L149.743 23.8914L151.11 24.5323ZM165.56 7.65098L166.367 8.92646L165.56 7.65098ZM207.426 7.65098L206.619 8.92646L207.426 7.65098ZM221.741 24.5323L220.372 25.1669L220.377 25.177L220.382 25.187L221.741 24.5323ZM221.741 77.0671L220.378 76.4189L220.375 76.4262L221.741 77.0671ZM207.426 93.8134L206.619 92.5379L207.426 93.8134ZM199.998 73.6908L198.746 72.8485L198.741 72.8564L198.735 72.8644L199.998 73.6908ZM199.998 27.7736L198.735 28.6L198.741 28.608L198.746 28.6159L199.998 27.7736ZM172.988 27.7736L171.736 26.9312L171.731 26.9391L171.725 26.9471L172.988 27.7736ZM172.988 73.6908L171.725 74.5173L171.731 74.5253L171.736 74.5332L172.988 73.6908ZM186.493 98.1115C178.921 98.1115 172.228 96.2444 166.367 92.5379L164.754 95.0889C171.137 99.1254 178.399 101.13 186.493 101.13V98.1115ZM166.367 92.5379C160.511 88.8348 155.873 83.4813 152.469 76.4125L149.75 77.7218C153.369 85.2384 158.365 91.0491 164.754 95.0889L166.367 92.5379ZM152.479 76.4326C149.17 69.2919 147.487 60.7402 147.487 50.7322H144.469C144.469 61.0719 146.207 70.0767 149.741 77.7016L152.479 76.4326ZM147.487 50.7322C147.487 40.7234 149.17 32.2199 152.476 25.1733L149.743 23.8914C146.207 31.4302 144.469 40.3933 144.469 50.7322H147.487ZM152.473 25.1805C155.878 18.0211 160.515 12.6266 166.367 8.92646L164.754 6.37551C158.36 10.4183 153.364 16.278 149.747 23.8842L152.473 25.1805ZM166.367 8.92646C172.228 5.22004 178.921 3.35289 186.493 3.35289V0.334707C178.399 0.334707 171.137 2.33902 164.754 6.37551L166.367 8.92646ZM186.493 3.35289C194.065 3.35289 200.758 5.22004 206.619 8.92646L208.232 6.37551C201.849 2.33902 194.587 0.334707 186.493 0.334707V3.35289ZM206.619 8.92646C212.467 12.6242 217.057 18.0139 220.372 25.1669L223.111 23.8978C219.583 16.2852 214.63 10.4207 208.232 6.37551L206.619 8.92646ZM220.382 25.187C223.773 32.23 225.499 40.7284 225.499 50.7322H228.517C228.517 40.3884 226.733 31.4202 223.101 23.8777L220.382 25.187ZM225.499 50.7322C225.499 60.7352 223.773 69.282 220.379 76.419L223.104 77.7153C226.732 70.0867 228.517 61.0768 228.517 50.7322H225.499ZM220.375 76.4262C217.062 83.4886 212.472 88.8372 206.619 92.5379L208.232 95.0889C214.625 91.0467 219.578 85.2312 223.108 77.7081L220.375 76.4262ZM206.619 92.5379C200.758 96.2444 194.065 98.1115 186.493 98.1115V101.13C194.587 101.13 201.849 99.1254 208.232 95.0889L206.619 92.5379ZM186.493 82.6277C192.781 82.6277 197.75 79.8812 201.261 74.5173L198.735 72.8644C195.764 77.4042 191.73 79.6096 186.493 79.6096V82.6277ZM201.25 74.5332C204.832 69.2089 206.504 61.1913 206.504 50.7322H203.486C203.486 60.9809 201.827 68.2691 198.746 72.8485L201.25 74.5332ZM206.504 50.7322C206.504 40.2731 204.832 32.2555 201.25 26.9312L198.746 28.6159C201.827 33.1953 203.486 40.4835 203.486 50.7322H206.504ZM201.261 26.9471C197.75 21.5832 192.781 18.8367 186.493 18.8367V21.8549C191.73 21.8549 195.764 24.0602 198.735 28.6L201.261 26.9471ZM186.493 18.8367C180.288 18.8367 175.33 21.5885 171.736 26.9312L174.24 28.6159C177.308 24.0549 181.354 21.8549 186.493 21.8549V18.8367ZM171.725 26.9471C168.243 32.2676 166.617 40.278 166.617 50.7322H169.635C169.635 40.4787 171.251 33.1833 174.251 28.6L171.725 26.9471ZM166.617 50.7322C166.617 61.1865 168.243 69.1968 171.725 74.5173L174.251 72.8644C171.251 68.2811 169.635 60.9857 169.635 50.7322H166.617ZM171.736 74.5332C175.33 79.8759 180.288 82.6277 186.493 82.6277V79.6096C181.354 79.6096 177.308 77.4095 174.24 72.8485L171.736 74.5332ZM257.221 93.8134L258.027 92.5379L257.221 93.8134ZM242.77 77.0671L241.401 77.7016L241.406 77.7117L241.411 77.7218L242.77 77.0671ZM242.77 24.5323L241.407 23.8842L241.404 23.8914L242.77 24.5323ZM257.221 7.65098L258.027 8.92646L257.221 7.65098ZM299.086 7.65098L298.28 8.92646L299.086 7.65098ZM313.402 24.5323L312.033 25.1669L312.037 25.177L312.042 25.187L313.402 24.5323ZM313.402 77.0671L312.039 76.4189L312.036 76.4262L313.402 77.0671ZM299.086 93.8134L298.28 92.5379L299.086 93.8134ZM291.659 73.6908L290.406 72.8485L290.401 72.8564L290.396 72.8644L291.659 73.6908ZM291.659 27.7736L290.396 28.6L290.401 28.608L290.406 28.6159L291.659 27.7736ZM264.648 27.7736L263.396 26.9312L263.391 26.9391L263.386 26.9471L264.648 27.7736ZM264.648 73.6908L263.386 74.5173L263.391 74.5253L263.396 74.5332L264.648 73.6908ZM278.154 98.1115C270.582 98.1115 263.889 96.2444 258.027 92.5379L256.414 95.0889C262.797 99.1254 270.059 101.13 278.154 101.13V98.1115ZM258.027 92.5379C252.171 88.8348 247.533 83.4813 244.13 76.4125L241.411 77.7218C245.03 85.2384 250.026 91.0491 256.414 95.0889L258.027 92.5379ZM244.139 76.4326C240.83 69.2919 239.147 60.7402 239.147 50.7322H236.129C236.129 61.0719 237.868 70.0767 241.401 77.7016L244.139 76.4326ZM239.147 50.7322C239.147 40.7234 240.831 32.2199 244.136 25.1733L241.404 23.8914C237.867 31.4302 236.129 40.3933 236.129 50.7322H239.147ZM244.133 25.1805C247.538 18.0211 252.176 12.6266 258.027 8.92646L256.414 6.37551C250.021 10.4183 245.025 16.278 241.407 23.8842L244.133 25.1805ZM258.027 8.92646C263.889 5.22004 270.582 3.35289 278.154 3.35289V0.334707C270.059 0.334707 262.797 2.33902 256.414 6.37551L258.027 8.92646ZM278.154 3.35289C285.725 3.35289 292.419 5.22004 298.28 8.92646L299.893 6.37551C293.51 2.33902 286.248 0.334707 278.154 0.334707V3.35289ZM298.28 8.92646C304.127 12.6242 308.718 18.0139 312.033 25.1669L314.771 23.8978C311.243 16.2852 306.29 10.4207 299.893 6.37551L298.28 8.92646ZM312.042 25.187C315.433 32.23 317.16 40.7284 317.16 50.7322H320.178C320.178 40.3884 318.393 31.4202 314.762 23.8777L312.042 25.187ZM317.16 50.7322C317.16 60.7352 315.433 69.282 312.039 76.419L314.765 77.7153C318.393 70.0867 320.178 61.0768 320.178 50.7322H317.16ZM312.036 76.4262C308.722 83.4886 304.132 88.8372 298.28 92.5379L299.893 95.0889C306.285 91.0467 311.239 85.2312 314.768 77.7081L312.036 76.4262ZM298.28 92.5379C292.419 96.2444 285.725 98.1115 278.154 98.1115V101.13C286.248 101.13 293.51 99.1254 299.893 95.0889L298.28 92.5379ZM278.154 82.6277C284.441 82.6277 289.41 79.8812 292.921 74.5173L290.396 72.8644C287.424 77.4042 283.39 79.6096 278.154 79.6096V82.6277ZM292.911 74.5332C296.493 69.2089 298.165 61.1913 298.165 50.7322H295.146C295.146 60.9809 293.487 68.2691 290.406 72.8485L292.911 74.5332ZM298.165 50.7322C298.165 40.2731 296.493 32.2555 292.911 26.9312L290.406 28.6159C293.487 33.1953 295.146 40.4835 295.146 50.7322H298.165ZM292.921 26.9471C289.41 21.5832 284.441 18.8367 278.154 18.8367V21.8549C283.39 21.8549 287.424 24.0602 290.396 28.6L292.921 26.9471ZM278.154 18.8367C271.949 18.8367 266.991 21.5885 263.396 26.9312L265.901 28.6159C268.969 24.0549 273.014 21.8549 278.154 21.8549V18.8367ZM263.386 26.9471C259.903 32.2676 258.278 40.278 258.278 50.7322H261.296C261.296 40.4787 262.911 33.1833 265.911 28.6L263.386 26.9471ZM258.278 50.7322C258.278 61.1865 259.903 69.1968 263.386 74.5173L265.911 72.8644C262.911 68.2811 261.296 60.9857 261.296 50.7322H258.278ZM263.396 74.5332C266.991 79.8759 271.949 82.6277 278.154 82.6277V79.6096C273.014 79.6096 268.969 77.4095 265.901 72.8485L263.396 74.5332ZM348.881 93.8134L349.688 92.5379L348.881 93.8134ZM334.431 77.0671L333.061 77.7016L333.066 77.7117L333.071 77.7218L334.431 77.0671ZM334.431 24.5323L333.068 23.8842L333.064 23.8914L334.431 24.5323ZM348.881 7.65098L349.688 8.92646L348.881 7.65098ZM390.747 7.65098L389.94 8.92646L390.747 7.65098ZM405.062 24.5323L403.693 25.1669L403.698 25.177L403.703 25.187L405.062 24.5323ZM405.062 77.0671L403.699 76.4189L403.696 76.4262L405.062 77.0671ZM390.747 93.8134L389.94 92.5379L390.747 93.8134ZM383.319 73.6908L382.067 72.8485L382.062 72.8564L382.056 72.8644L383.319 73.6908ZM383.319 27.7736L382.056 28.6L382.062 28.608L382.067 28.6159L383.319 27.7736ZM356.309 27.7736L355.057 26.9312L355.051 26.9391L355.046 26.9471L356.309 27.7736ZM356.309 73.6908L355.046 74.5173L355.051 74.5253L355.057 74.5332L356.309 73.6908ZM369.814 98.1115C362.242 98.1115 355.549 96.2444 349.688 92.5379L348.075 95.0889C354.458 99.1254 361.72 101.13 369.814 101.13V98.1115ZM349.688 92.5379C343.832 88.8348 339.194 83.4813 335.79 76.4125L333.071 77.7218C336.69 85.2384 341.686 91.0491 348.075 95.0889L349.688 92.5379ZM335.8 76.4326C332.491 69.2919 330.808 60.7402 330.808 50.7322H327.79C327.79 61.0719 329.528 70.0767 333.061 77.7016L335.8 76.4326ZM330.808 50.7322C330.808 40.7234 332.491 32.2199 335.797 25.1733L333.064 23.8914C329.528 31.4302 327.79 40.3933 327.79 50.7322H330.808ZM335.793 25.1805C339.199 18.0211 343.836 12.6266 349.688 8.92646L348.075 6.37551C341.681 10.4183 336.685 16.278 333.068 23.8842L335.793 25.1805ZM349.688 8.92646C355.549 5.22004 362.242 3.35289 369.814 3.35289V0.334707C361.72 0.334707 354.458 2.33902 348.075 6.37551L349.688 8.92646ZM369.814 3.35289C377.386 3.35289 384.079 5.22004 389.94 8.92646L391.553 6.37551C385.17 2.33902 377.908 0.334707 369.814 0.334707V3.35289ZM389.94 8.92646C395.788 12.6242 400.378 18.0139 403.693 25.1669L406.431 23.8978C402.904 16.2852 397.95 10.4207 391.553 6.37551L389.94 8.92646ZM403.703 25.187C407.094 32.23 408.82 40.7284 408.82 50.7322H411.838C411.838 40.3884 410.054 31.4202 406.422 23.8777L403.703 25.187ZM408.82 50.7322C408.82 60.7352 407.094 69.282 403.699 76.419L406.425 77.7153C410.053 70.0867 411.838 61.0768 411.838 50.7322H408.82ZM403.696 76.4262C400.383 83.4886 395.793 88.8372 389.94 92.5379L391.553 95.0889C397.946 91.0467 402.899 85.2312 406.428 77.7081L403.696 76.4262ZM389.94 92.5379C384.079 96.2444 377.386 98.1115 369.814 98.1115V101.13C377.908 101.13 385.17 99.1254 391.553 95.0889L389.94 92.5379ZM369.814 82.6277C376.102 82.6277 381.071 79.8812 384.582 74.5173L382.056 72.8644C379.085 77.4042 375.051 79.6096 369.814 79.6096V82.6277ZM384.571 74.5332C388.153 69.2089 389.825 61.1913 389.825 50.7322H386.807C386.807 60.9809 385.148 68.2691 382.067 72.8485L384.571 74.5332ZM389.825 50.7322C389.825 40.2731 388.153 32.2555 384.571 26.9312L382.067 28.6159C385.148 33.1953 386.807 40.4835 386.807 50.7322H389.825ZM384.582 26.9471C381.071 21.5832 376.102 18.8367 369.814 18.8367V21.8549C375.051 21.8549 379.085 24.0602 382.056 28.6L384.582 26.9471ZM369.814 18.8367C363.609 18.8367 358.651 21.5885 355.057 26.9312L357.561 28.6159C360.629 24.0549 364.675 21.8549 369.814 21.8549V18.8367ZM355.046 26.9471C351.564 32.2676 349.938 40.278 349.938 50.7322H352.956C352.956 40.4787 354.572 33.1833 357.572 28.6L355.046 26.9471ZM349.938 50.7322C349.938 61.1865 351.564 69.1968 355.046 74.5173L357.572 72.8644C354.572 68.2811 352.956 60.9857 352.956 50.7322H349.938ZM355.057 74.5332C358.651 79.8759 363.609 82.6277 369.814 82.6277V79.6096C364.675 79.6096 360.629 77.4095 357.561 72.8485L355.057 74.5332Z" fill="#FF6521"/>
</svg>
