<svg width="249" height="102" viewBox="0 0 249 102" fill="none" xmlns="http://www.w3.org/2000/svg">
<path d="M51.7692 41.9539L50.635 40.9584L48.8385 43.0051L51.5263 43.4433L51.7692 41.9539ZM70.8114 51.2724L69.6937 52.2865L69.7033 52.2969L70.8114 51.2724ZM73.1072 84.3599L74.3856 85.162L74.3925 85.1508L73.1072 84.3599ZM59.8722 95.434L59.2307 94.0681L59.2226 94.0719L59.8722 95.434ZM18.5467 97.0546L18.1375 98.5072L18.1495 98.5106L18.1616 98.5138L18.5467 97.0546ZM2.20553 89.4918L0.860121 88.8082L0.274457 89.961L1.32376 90.7165L2.20553 89.4918ZM10.7137 72.7455L11.6192 71.5382L10.182 70.4604L9.36832 72.0619L10.7137 72.7455ZM23.1384 79.0929L22.6695 80.5273L22.6858 80.5326L22.7023 80.5376L23.1384 79.0929ZM50.6888 78.1475L51.5175 79.4087L51.53 79.4005L51.5422 79.3921L50.6888 78.1475ZM27.7301 57.4847H26.221V58.9938H27.7301V57.4847ZM27.7301 43.0343L26.5992 42.0352L26.221 42.4632V43.0343H27.7301ZM47.1775 21.021L48.3084 22.0201L50.5243 19.5119H47.1775V21.021ZM6.9323 21.021H5.42321V22.5301H6.9323V21.021ZM6.9323 3.4644V1.95531H5.42321V3.4644H6.9323ZM73.1072 3.4644H74.6163V1.95531H73.1072V3.4644ZM73.1072 17.6447L74.2414 18.6403L74.6163 18.2131V17.6447H73.1072ZM51.5263 43.4433C59.5677 44.7544 65.5689 47.7407 69.6938 52.2865L71.9289 50.2583C67.2305 45.0804 60.5369 41.8544 52.012 40.4645L51.5263 43.4433ZM69.7033 52.2969C73.8318 56.7624 75.9198 62.3272 75.9198 69.0991H78.9379C78.9379 61.6457 76.6142 55.326 71.9194 50.248L69.7033 52.2969ZM75.9198 69.0991C75.9198 74.3116 74.5569 79.1248 71.822 83.569L74.3925 85.1508C77.4198 80.2314 78.9379 74.8707 78.9379 69.0991H75.9198ZM71.8289 83.5578C69.1314 87.857 64.9667 91.3739 59.2307 94.0681L60.5138 96.8C66.6622 93.9121 71.3209 90.0462 74.3855 85.1619L71.8289 83.5578ZM59.2226 94.0719C53.6273 96.7405 46.6612 98.1115 38.2641 98.1115V101.13C46.9735 101.13 54.4128 99.7097 60.5219 96.7961L59.2226 94.0719ZM38.2641 98.1115C31.7324 98.1115 25.2893 97.2732 18.9317 95.5955L18.1616 98.5138C24.7689 100.257 31.4708 101.13 38.2641 101.13V98.1115ZM18.9559 95.6021C12.7005 93.84 7.42088 91.3873 3.08729 88.2671L1.32376 90.7165C5.99356 94.0787 11.608 96.6679 18.1375 98.5072L18.9559 95.6021ZM3.55093 90.1753L12.0591 73.429L9.36832 72.0619L0.860121 88.8082L3.55093 90.1753ZM9.80827 73.9528C13.5536 76.7617 17.8455 78.9502 22.6695 80.5273L23.6073 77.6585C19.0678 76.1744 15.0766 74.1313 11.6192 71.5382L9.80827 73.9528ZM22.7023 80.5376C27.6146 82.0205 32.6233 82.7628 37.7239 82.7628V79.7446C32.9208 79.7446 28.2058 79.0463 23.5745 77.6482L22.7023 80.5376ZM37.7239 82.7628C43.3831 82.7628 48.0318 81.6993 51.5175 79.4087L49.86 76.8864C47.0434 78.7373 43.0488 79.7446 37.7239 79.7446V82.7628ZM51.5422 79.3921C55.1102 76.9455 56.9246 73.4603 56.9246 69.0991H53.9065C53.9065 72.4809 52.5697 75.028 49.8353 76.9029L51.5422 79.3921ZM56.9246 69.0991C56.9246 64.778 55.2413 61.3723 51.8208 59.1268C48.5111 56.954 43.7382 55.9757 37.7239 55.9757V58.9938C43.504 58.9938 47.5769 59.9512 50.1645 61.6499C52.6412 63.2758 53.9065 65.6773 53.9065 69.0991H56.9246ZM37.7239 55.9757H27.7301V58.9938H37.7239V55.9757ZM29.2392 57.4847V43.0343H26.221V57.4847H29.2392ZM28.8611 44.0334L48.3084 22.0201L46.0465 20.0219L26.5992 42.0352L28.8611 44.0334ZM47.1775 19.5119H6.9323V22.5301H47.1775V19.5119ZM8.4414 21.021V3.4644H5.42321V21.021H8.4414ZM6.9323 4.9735H73.1072V1.95531H6.9323V4.9735ZM71.5981 3.4644V17.6447H74.6163V3.4644H71.5981ZM71.9731 16.6492L50.635 40.9584L52.9033 42.9494L74.2414 18.6403L71.9731 16.6492ZM157.502 80.1733H159.011V78.6642H157.502V80.1733ZM157.502 98V99.5091H159.011V98H157.502ZM86.0605 98H84.5514V99.5091H86.0605V98ZM86.0605 83.8197L85.0243 82.7225L84.5514 83.1692V83.8197H86.0605ZM122.524 49.3817L123.56 50.4788L123.566 50.4739L122.524 49.3817ZM130.357 39.9281L131.698 40.6214L131.702 40.6123L131.707 40.603L130.357 39.9281ZM128.466 23.3169L127.509 24.483L127.531 24.5015L127.554 24.5192L128.466 23.3169ZM106.048 22.6416L106.678 24.0129L106.693 24.0059L106.708 23.9987L106.048 22.6416ZM97.6749 29.6643L96.8577 30.933L98.0669 31.7118L98.9029 30.5414L97.6749 29.6643ZM81.7389 19.4004L80.4864 18.5586L79.6279 19.8358L80.9217 20.6691L81.7389 19.4004ZM96.9996 6.57057L97.644 7.93517L97.6517 7.93153L97.6594 7.9278L96.9996 6.57057ZM137.65 5.35512L137.033 6.73218L137.047 6.73854L137.061 6.74461L137.65 5.35512ZM149.94 15.0788L148.692 15.9281L148.703 15.9434L148.713 15.9584L149.94 15.0788ZM151.155 44.2498L152.515 44.9028L151.155 44.2498ZM138.595 59.6456L137.569 58.5391L137.559 58.5482L138.595 59.6456ZM116.852 80.1733L115.816 79.076L113.055 81.6824H116.852V80.1733ZM155.993 80.1733V98H159.011V80.1733H155.993ZM157.502 96.4909H86.0605V99.5091H157.502V96.4909ZM87.5696 98V83.8197H84.5514V98H87.5696ZM87.0967 84.9168L123.56 50.4788L121.488 48.2846L85.0243 82.7225L87.0967 84.9168ZM123.566 50.4739C127.476 46.7454 130.231 43.4564 131.698 40.6214L129.017 39.2348C127.782 41.6219 125.315 44.6352 121.483 48.2895L123.566 50.4739ZM131.707 40.603C133.146 37.7253 133.892 34.8395 133.892 31.9601H130.874C130.874 34.3027 130.27 36.7289 129.007 39.2533L131.707 40.603ZM133.892 31.9601C133.892 27.7891 132.427 24.4271 129.379 22.1146L127.554 24.5192C129.728 26.1682 130.874 28.5683 130.874 31.9601H133.892ZM129.424 22.1508C126.525 19.7688 122.385 18.7016 117.257 18.7016V21.7198C122.033 21.7198 125.366 22.7234 127.509 24.483L129.424 22.1508ZM117.257 18.7016C112.914 18.7016 108.948 19.5527 105.388 21.2846L106.708 23.9987C109.811 22.4894 113.317 21.7198 117.257 21.7198V18.7016ZM105.418 21.2704C101.834 22.917 98.8416 25.4345 96.4469 28.7871L98.9029 30.5414C101.01 27.5917 103.599 25.4274 106.678 24.0129L105.418 21.2704ZM98.492 28.3956L82.556 18.1317L80.9217 20.6691L96.8577 30.933L98.492 28.3956ZM82.9913 20.2422C86.5183 14.9948 91.3865 10.8901 97.644 7.93517L96.3552 5.20598C89.6479 8.37334 84.3422 12.8219 80.4864 18.5586L82.9913 20.2422ZM97.6594 7.9278C103.905 4.89151 111.102 3.35289 119.283 3.35289V0.334707C110.718 0.334707 103.059 1.94727 96.3398 5.21334L97.6594 7.9278ZM119.283 3.35289C126.14 3.35289 132.044 4.49576 137.033 6.73218L138.267 3.97806C132.812 1.53272 126.471 0.334707 119.283 0.334707V3.35289ZM137.061 6.74461C142.141 8.89718 145.994 11.9656 148.692 15.9281L151.187 14.2295C148.123 9.72878 143.783 6.31475 138.239 3.96562L137.061 6.74461ZM148.713 15.9584C151.48 19.8149 152.887 24.4055 152.887 29.7993H155.905C155.905 23.8489 154.341 18.6258 151.166 14.1991L148.713 15.9584ZM152.887 29.7993C152.887 34.7117 151.855 39.3046 149.795 43.5967L152.515 44.9028C154.777 40.1915 155.905 35.1508 155.905 29.7993H152.887ZM149.795 43.5967C147.754 47.8488 143.726 52.8287 137.569 58.5391L139.622 60.752C145.89 54.9381 150.235 49.6541 152.515 44.9028L149.795 43.5967ZM137.559 58.5482L115.816 79.076L117.888 81.2706L139.631 60.7429L137.559 58.5482ZM116.852 81.6824H157.502V78.6642H116.852V81.6824ZM185.848 93.8134L186.655 92.5379H186.655L185.848 93.8134ZM171.398 77.0671L170.029 77.7016L170.033 77.7117L170.038 77.7218L171.398 77.0671ZM171.398 24.5323L170.035 23.8842L170.032 23.8914L171.398 24.5323ZM185.848 7.65098L186.655 8.92646L185.848 7.65098ZM227.714 7.65098L226.908 8.92646L227.714 7.65098ZM242.029 24.5323L240.66 25.1669L240.665 25.177L240.67 25.187L242.029 24.5323ZM242.029 77.0671L240.667 76.4189L240.663 76.4262L242.029 77.0671ZM227.714 93.8134L226.908 92.5379L227.714 93.8134ZM220.286 73.6908L219.034 72.8485L219.029 72.8564L219.024 72.8644L220.286 73.6908ZM220.286 27.7736L219.024 28.6L219.029 28.608L219.034 28.6159L220.286 27.7736ZM193.276 27.7736L192.024 26.9312L192.019 26.9391L192.013 26.9471L193.276 27.7736ZM193.276 73.6908L192.013 74.5173L192.019 74.5253L192.024 74.5332L193.276 73.6908ZM206.781 98.1115C199.21 98.1115 192.516 96.2444 186.655 92.5379L185.042 95.0889C191.425 99.1254 198.687 101.13 206.781 101.13V98.1115ZM186.655 92.5379C180.799 88.8348 176.161 83.4813 172.758 76.4125L170.038 77.7218C173.657 85.2384 178.653 91.0491 185.042 95.0889L186.655 92.5379ZM172.767 76.4326C169.458 69.2919 167.775 60.7402 167.775 50.7322H164.757C164.757 61.0719 166.495 70.0767 170.029 77.7016L172.767 76.4326ZM167.775 50.7322C167.775 40.7234 169.458 32.2199 172.764 25.1733L170.032 23.8914C166.495 31.4302 164.757 40.3933 164.757 50.7322H167.775ZM172.761 25.1805C176.166 18.0211 180.803 12.6266 186.655 8.92646L185.042 6.37551C178.648 10.4183 173.653 16.278 170.035 23.8842L172.761 25.1805ZM186.655 8.92646C192.516 5.22004 199.21 3.35289 206.781 3.35289V0.334707C198.687 0.334707 191.425 2.33902 185.042 6.37551L186.655 8.92646ZM206.781 3.35289C214.353 3.35289 221.046 5.22004 226.908 8.92646L228.521 6.37551C222.137 2.33902 214.875 0.334707 206.781 0.334707V3.35289ZM226.908 8.92646C232.755 12.6242 237.345 18.0139 240.66 25.1669L243.399 23.8978C239.871 16.2852 234.918 10.4207 228.521 6.37551L226.908 8.92646ZM240.67 25.187C244.061 32.23 245.787 40.7284 245.787 50.7322H248.806C248.806 40.3884 247.021 31.4202 243.389 23.8777L240.67 25.187ZM245.787 50.7322C245.787 60.7352 244.061 69.282 240.667 76.419L243.392 77.7153C247.02 70.0867 248.806 61.0768 248.806 50.7322H245.787ZM240.663 76.4262C237.35 83.4886 232.76 88.8372 226.908 92.5379L228.521 95.0889C234.913 91.0467 239.866 85.2312 243.396 77.7081L240.663 76.4262ZM226.908 92.5379C221.046 96.2444 214.353 98.1115 206.781 98.1115V101.13C214.875 101.13 222.137 99.1254 228.521 95.0889L226.908 92.5379ZM206.781 82.6277C213.069 82.6277 218.038 79.8812 221.549 74.5173L219.024 72.8644C216.052 77.4042 212.018 79.6096 206.781 79.6096V82.6277ZM221.538 74.5332C225.12 69.2089 226.792 61.1913 226.792 50.7322H223.774C223.774 60.9809 222.115 68.2691 219.034 72.8485L221.538 74.5332ZM226.792 50.7322C226.792 40.2731 225.12 32.2555 221.538 26.9312L219.034 28.6159C222.115 33.1953 223.774 40.4835 223.774 50.7322H226.792ZM221.549 26.9471C218.038 21.5832 213.069 18.8367 206.781 18.8367V21.8549C212.018 21.8549 216.052 24.0602 219.024 28.6L221.549 26.9471ZM206.781 18.8367C200.576 18.8367 195.618 21.5885 192.024 26.9312L194.528 28.6159C197.597 24.0549 201.642 21.8549 206.781 21.8549V18.8367ZM192.013 26.9471C188.531 32.2676 186.905 40.278 186.905 50.7322H189.923C189.923 40.4787 191.539 33.1833 194.539 28.6L192.013 26.9471ZM186.905 50.7322C186.905 61.1865 188.531 69.1968 192.013 74.5173L194.539 72.8644C191.539 68.2811 189.923 60.9857 189.923 50.7322H186.905ZM192.024 74.5332C195.618 79.8759 200.576 82.6277 206.781 82.6277V79.6096C201.642 79.6096 197.597 77.4095 194.528 72.8485L192.024 74.5332Z" fill="#FF6521"/>
</svg>
