<?xml version="1.0" standalone="no"?>
<!DOCTYPE svg PUBLIC "-//W3C//DTD SVG 20010904//EN"
 "http://www.w3.org/TR/2001/REC-SVG-20010904/DTD/svg10.dtd">
<svg version="1.0" xmlns="http://www.w3.org/2000/svg"
 width="555.000000pt" height="180.000000pt" viewBox="0 0 555.000000 180.000000"
 preserveAspectRatio="xMidYMid meet">

<g transform="translate(0.000000,180.000000) scale(0.100000,-0.100000)"
fill="#000000" stroke="none">
<path d="M2416 1134 c-19 -19 -20 -36 -4 -52 17 -17 709 -17 726 0 16 16 15
33 -4 52 -13 14 -60 16 -359 16 -299 0 -346 -2 -359 -16z"/>
<path d="M2418 929 c-24 -13 -23 -46 1 -59 27 -14 685 -14 712 0 10 6 19 19
19 30 0 11 -9 24 -19 30 -26 14 -689 13 -713 -1z"/>
<path d="M2412 718 c-16 -16 -15 -33 4 -52 13 -14 60 -16 359 -16 299 0 346 2
359 16 19 19 20 36 4 52 -17 17 -709 17 -726 0z"/>
</g>
</svg>
