<svg width="238" height="68" viewBox="0 0 238 68" fill="none" xmlns="http://www.w3.org/2000/svg">
<g clip-path="url(#clip0)">
<path d="M52.6876 0.728571C55.7336 1.13333 58.2857 1.8619 60.4261 2.83333C61.9903 3.48095 63.3075 4.29048 64.5423 5.18095C65.2009 5.74762 65.7772 6.39524 66.3535 7.04286C67.3414 8.3381 68 9.87619 68.3292 11.6571C69.3171 17.1619 63.8014 25.581 53.2639 29.2238C45.3607 31.8952 38.7748 30.1952 34.9055 28.6571C33.753 28.2524 32.8474 27.8476 32.1888 27.5238C31.3656 27.2 30.8716 29.0619 32.1888 31.1667C32.6004 31.8143 33.259 32.4619 34.0823 33.1095C32.8474 32.219 32.1065 31.2476 31.6949 30.3571C31.8595 30.7619 32.1065 31.1667 32.2711 31.5714C32.8474 32.8667 34.1646 34.3238 36.4697 35.5381C37.046 35.8619 37.6222 36.1048 38.2808 36.3476C47.3365 39.5857 63.4721 36.0238 71.3752 27.5238C77.8789 20.5619 77.6319 12.3048 71.046 6.6381C70.799 6.47619 70.552 6.23333 70.305 6.07143C70.3874 6.15238 70.4697 6.23333 70.552 6.31429C70.305 6.07143 70.0581 5.82857 69.7288 5.66667C67.506 3.80476 64.2953 2.34762 60.5084 1.37619C59.4382 1.05238 58.2857 0.809524 57.1331 0.647619C54.9104 0.242857 52.4406 0 49.8886 0C46.6779 0 43.6319 0.404762 40.1743 0.971429C40.2566 1.05238 40.092 0.890476 40.1743 0.971429C45.1138 0.242857 49.23 0.32381 52.6876 0.728571Z" fill="#A22A29"/>
<path d="M29.6369 60.2286C27.8257 59.0952 26.1792 57.8 24.7797 56.5048C22.9686 54.8857 21.4867 53.2667 20.2519 51.4857C20.1696 51.4048 20.0872 51.3238 20.0872 51.1619C18.6054 49.1381 17.4528 47.1143 16.6296 44.9286C15.5594 41.5286 15.2301 37.6429 16.1357 33.0286C17.4528 25.9048 24.5327 16.6762 33.5061 13.1143C41.8209 9.79524 48.9831 12.2238 51.8645 13.1952C52.6877 13.4381 52.9347 12.5476 52.0291 11.2524C51.4528 10.4429 50.6296 9.71428 49.971 9.30952C49.3124 8.90476 48.4892 8.58095 47.5013 8.33809C47.0073 8.25714 46.5134 8.09524 45.9371 8.01428C45.1962 7.93333 44.4553 7.85238 43.632 7.85238C36.7168 7.85238 26.1792 11.4952 19.6756 17.5667C11.6901 25.0143 8.23251 35.5381 11.1962 44.6857C11.1139 44.5238 11.1139 44.2809 11.0315 44.119C11.1139 44.4429 11.1962 44.7667 11.2785 45.0905C11.3608 45.4143 11.4432 45.6571 11.5255 45.9809C13.3366 51.4857 17.6175 56.5048 23.7095 60.5524C28.4843 63.7095 34.3294 66.219 40.9153 67.7571H41.4093H41.9855H42.5618H43.1381H43.7143H44.2906H44.8669H45.4432H45.7725C38.2809 65.8952 34.247 63.1429 29.6369 60.2286Z" fill="#ED6E0B"/>
<path d="M89.4044 15.381C89.4044 15.7857 89.4044 16.1095 89.4044 16.4333C89.0751 23.1524 84.2179 28.4952 78.0436 32.5429C71.3753 36.9143 63.9661 39.9905 52.2761 40.881C45.8548 41.3667 38.6925 40.1524 33.4238 37.4C32.6005 36.9952 31.7773 36.5095 31.1187 35.9429C29.7192 34.9714 28.5666 33.8381 27.7434 32.6238C27.4964 32.3 27.3318 31.8952 27.0848 31.4905C27.0025 31.4095 27.0025 31.2476 27.0025 31.1667C25.1913 24.7714 31.7773 18.2143 34.1647 15.9476C34.741 15.4619 35.3172 15.219 34.4117 14.8952C34.1647 14.8143 33.9177 14.8143 33.7531 14.8143C33.2591 14.8143 32.8475 14.8952 32.6005 14.9762C30.7894 15.4619 27.1671 17.2429 24.2034 20.8048C21.9807 23.4762 20.8281 25.9857 20.4165 28.5762V32.6238C20.5812 33.5952 20.7458 34.5667 20.9928 35.619C21.2397 36.5095 21.569 37.319 21.4044 36.9143C22.1453 38.8571 24.0388 42.419 28.402 45.3333C28.7313 45.5762 29.1429 45.819 29.5545 46.0619C40.092 52.1333 55.6514 51.6476 69.8112 44.9286C76.8911 41.6095 81.8305 37.4 85.3705 31.6524C90.3099 23.9619 89.7337 15.7048 89.4044 15.381Z" fill="#C51417"/>
<path d="M63.4722 12.1429C62.4843 9.55238 60.5085 7.77143 58.5327 6.55714C57.5448 5.90952 56.4746 5.34286 55.3221 4.9381C54.8281 4.77619 54.3342 4.61429 53.8402 4.45238C53.6756 4.45238 53.5933 4.37143 53.4286 4.37143C53.0993 4.29048 52.8523 4.20952 52.8523 4.20952C45.1962 2.50952 34.6586 4.12857 25.109 8.98571C17.5352 12.8714 9.96131 19.5905 4.61022 27.6857C2.71676 30.6 1.23492 34.3238 4.90621e-05 37.481C4.90621e-05 37.8048 -0.0822754 37.4 -0.0822754 37.7238C4.1986 27.9286 10.4553 21.0476 16.6296 16.4333C22.1453 12.3048 27.7434 9.30952 35.7289 7.52857C40.2567 6.55714 45.6078 6.47619 49.8887 7.60952C52.523 8.33809 54.8281 9.47143 56.31 11.0095C56.3923 11.0905 56.3923 11.1714 56.4746 11.1714C59.5206 15.7048 54.8281 20.8048 52.1938 23.719C52.1114 23.8 52.1114 23.881 52.0291 23.881C51.0412 24.7714 49.477 25.2571 50.3003 25.9048C51.2059 26.6333 53.0993 26.4714 53.6756 26.3905C55.8983 26.0667 59.7676 24.4476 62.402 20.8048C64.2954 18.2143 64.6247 14.9762 63.4722 12.1429Z" fill="#FFD213"/>
<path fill-rule="evenodd" clip-rule="evenodd" d="M110.15 14.6524C110.15 15.7048 109.327 16.5143 108.01 16.5143H105.869V12.7905H108.01C109.327 12.7905 110.15 13.4381 110.15 14.6524ZM108.174 10.3619H103.153V22.5048H105.869V18.8619H107.927C110.726 18.8619 112.949 17.4048 112.949 14.5714C112.949 12.0619 111.138 10.3619 108.174 10.3619Z" fill="#6A686E"/>
<path fill-rule="evenodd" clip-rule="evenodd" d="M116.654 19.0238C116.654 16.8381 117.724 15.7048 119.535 15.7048H119.7V12.9524C118.136 12.8714 117.23 13.6809 116.654 14.9762V13.1143H113.937V22.4238H116.654V19.0238Z" fill="#6A686E"/>
<path fill-rule="evenodd" clip-rule="evenodd" d="M124.886 15.1381C126.039 15.1381 126.697 15.9476 126.862 17.081H122.828C123.075 15.9476 123.734 15.1381 124.886 15.1381ZM125.215 20.5619C123.981 20.5619 123.157 19.9143 122.91 18.7H129.496C129.496 18.4571 129.496 18.2143 129.496 17.9714C129.496 15.3 128.014 12.9524 124.886 12.9524C122.169 12.9524 120.194 15.1381 120.194 17.8095C120.194 20.6429 122.252 22.5857 125.133 22.5857C126.862 22.5857 128.097 21.9381 129.002 20.8857L127.438 19.5905C126.697 20.319 126.121 20.5619 125.215 20.5619Z" fill="#6A686E"/>
<path fill-rule="evenodd" clip-rule="evenodd" d="M124.804 11.0095L126.203 12.1429H128.261L126.121 9.47143H123.569L121.428 12.1429H123.487L124.804 11.0095Z" fill="#6A686E"/>
<path fill-rule="evenodd" clip-rule="evenodd" d="M136.659 17.3238V22.5048H139.375V17.3238C139.375 16.1095 139.952 15.4619 141.022 15.4619C142.01 15.4619 142.586 16.1095 142.586 17.3238V22.5048H145.303V16.4333C145.303 14.1667 144.068 13.0333 142.092 13.0333C140.775 13.0333 139.787 13.5191 138.964 14.4905C138.47 13.5191 137.564 13.0333 136.329 13.0333C134.93 13.0333 134.189 13.7619 133.53 14.4905V13.1952H130.813V22.5048H133.53V17.3238C133.53 16.1095 134.106 15.4619 135.177 15.4619C136.082 15.381 136.659 16.0286 136.659 17.3238Z" fill="#6A686E"/>
<path d="M149.748 9.79524H146.949V12.1429H149.748V9.79524Z" fill="#6A686E"/>
<path d="M149.666 13.1952H146.949V22.5048H149.666V13.1952Z" fill="#6A686E"/>
<path fill-rule="evenodd" clip-rule="evenodd" d="M153.7 17.8095C153.7 16.4333 154.605 15.3 156.17 15.3C157.651 15.3 158.639 16.5143 158.639 17.8905C158.639 19.2667 157.734 20.4 156.17 20.4C154.688 20.4 153.7 19.2667 153.7 17.8095ZM156.17 22.6667C159.133 22.6667 161.274 20.481 161.274 17.8095C161.274 15.1381 159.133 13.0333 156.17 13.0333C153.206 13.0333 151.065 15.2191 151.065 17.8905C151.065 20.5619 153.206 22.6667 156.17 22.6667Z" fill="#6A686E"/>
<path fill-rule="evenodd" clip-rule="evenodd" d="M170.082 14.7333L176.092 22.5048H178.397V10.3619H175.68V17.8095L169.918 10.3619H167.448V22.5048H170.082V14.7333Z" fill="#6A686E"/>
<path fill-rule="evenodd" clip-rule="evenodd" d="M182.431 19.6714C182.431 18.8619 183.172 18.3762 184.325 18.3762C184.983 18.3762 185.559 18.5381 186.053 18.7V19.1857C186.053 20.1571 185.23 20.8048 183.913 20.8048C183.007 20.8048 182.431 20.4 182.431 19.6714ZM183.09 22.6667C184.407 22.6667 185.312 22.181 185.971 21.4524V22.4238H188.523V17C188.523 15.7857 188.194 14.7333 187.535 14.0048C186.877 13.3571 185.806 12.9524 184.325 12.9524C182.76 12.9524 181.69 13.2762 180.62 13.681L181.279 15.7048C182.102 15.381 182.843 15.219 183.913 15.219C185.23 15.219 185.971 15.8667 185.971 16.919V17.081C185.312 16.8381 184.654 16.6762 183.666 16.6762C181.443 16.6762 179.879 17.6476 179.879 19.6714C179.797 21.6952 181.279 22.6667 183.09 22.6667Z" fill="#6A686E"/>
<path fill-rule="evenodd" clip-rule="evenodd" d="M194.615 22.6667C196.508 22.6667 197.579 21.9381 198.484 20.9667L196.92 19.4286C196.261 20.0762 195.685 20.4 194.78 20.4C193.298 20.4 192.392 19.2667 192.392 17.8095C192.392 16.4333 193.38 15.3 194.697 15.3C195.685 15.3 196.261 15.7048 196.838 16.3524L198.484 14.6524C197.579 13.681 196.508 13.1143 194.697 13.1143C191.816 13.1143 189.758 15.3 189.758 17.9714C189.675 20.5619 191.734 22.6667 194.615 22.6667Z" fill="#6A686E"/>
<path d="M202.353 9.79524H199.554V12.1429H202.353V9.79524Z" fill="#6A686E"/>
<path d="M202.353 13.1952H199.637V22.5048H202.353V13.1952Z" fill="#6A686E"/>
<path fill-rule="evenodd" clip-rule="evenodd" d="M211.244 17.8905C211.244 19.2667 210.339 20.4 208.775 20.4C207.293 20.4 206.305 19.1857 206.305 17.8095C206.305 16.4333 207.211 15.3 208.775 15.3C210.257 15.3 211.244 16.5143 211.244 17.8905ZM208.857 13.0333C205.893 13.0333 203.753 15.2191 203.753 17.8905C203.753 20.5619 205.893 22.6667 208.857 22.6667C211.821 22.6667 213.961 20.481 213.961 17.8095C213.961 15.1381 211.738 13.0333 208.857 13.0333Z" fill="#6A686E"/>
<path fill-rule="evenodd" clip-rule="evenodd" d="M220.63 13.0333C219.312 13.0333 218.489 13.7619 217.83 14.4905V13.1952H215.114V22.5048H217.83V17.3238C217.83 16.1095 218.489 15.4619 219.477 15.4619C220.465 15.4619 221.123 16.1095 221.123 17.3238V22.5048H223.84V16.5143C223.84 14.3286 222.688 13.0333 220.63 13.0333Z" fill="#6A686E"/>
<path fill-rule="evenodd" clip-rule="evenodd" d="M231.085 19.1857C231.085 20.1571 230.261 20.8048 228.944 20.8048C228.039 20.8048 227.462 20.4 227.462 19.6714C227.462 18.8619 228.203 18.3762 229.356 18.3762C230.014 18.3762 230.591 18.5381 231.085 18.7V19.1857ZM229.438 13.1143C227.792 13.1143 226.804 13.4381 225.734 13.8429L226.392 15.8667C227.298 15.5429 227.956 15.381 229.027 15.381C230.344 15.381 231.085 15.9476 231.085 17.081V17.2429C230.426 17 229.685 16.8381 228.78 16.8381C226.557 16.8381 224.993 17.8095 224.993 19.8333C224.993 21.6952 226.475 22.6667 228.203 22.6667C229.521 22.6667 230.426 22.181 231.085 21.4524V22.4238H233.719V17C233.719 15.7857 233.39 14.7333 232.731 14.0048C231.908 13.4381 230.838 13.1143 229.438 13.1143Z" fill="#6A686E"/>
<path d="M238.082 9.79524H235.366V22.4238H238.082V9.79524Z" fill="#6A686E"/>
<path fill-rule="evenodd" clip-rule="evenodd" d="M109.738 35.781C109.738 37.3191 108.668 38.3714 107.433 38.3714C106.198 38.3714 105.128 37.3191 105.128 35.781C105.128 34.2429 106.198 33.1905 107.433 33.1905C108.668 33.1905 109.738 34.2429 109.738 35.781ZM109.738 32.3C109.08 31.5714 108.257 30.9238 106.775 30.9238C104.552 30.9238 102.494 32.6238 102.494 35.7C102.494 38.7762 104.552 40.4762 106.775 40.4762C108.174 40.4762 109.08 39.8286 109.738 38.9381V40.3143H112.455V27.7667H109.738V32.3Z" fill="#6A686E"/>
<path fill-rule="evenodd" clip-rule="evenodd" d="M116.242 35.0524C116.489 33.8381 117.148 33.1095 118.3 33.1095C119.453 33.1095 120.111 33.919 120.276 35.0524H116.242ZM118.3 30.9238C115.583 30.9238 113.608 33.1095 113.608 35.781C113.608 38.6143 115.748 40.5571 118.547 40.5571C120.276 40.5571 121.511 39.9095 122.416 38.8571L120.852 37.4809C120.111 38.1286 119.453 38.4524 118.547 38.4524C117.312 38.4524 116.489 37.8048 116.242 36.5905H122.828C122.828 36.3476 122.828 36.1048 122.828 35.8619C122.91 33.3524 121.511 30.9238 118.3 30.9238Z" fill="#6A686E"/>
<path d="M131.966 28.2524H129.25V40.3952H131.966V28.2524Z" fill="#6A686E"/>
<path fill-rule="evenodd" clip-rule="evenodd" d="M139.54 30.9238C138.223 30.9238 137.399 31.6524 136.741 32.3809V31.0857H134.024V40.3952H136.741V35.2143C136.741 34 137.399 33.3524 138.387 33.3524C139.375 33.3524 140.034 34 140.034 35.2143V40.3952H142.751V34.4048C142.751 32.3 141.516 30.9238 139.54 30.9238Z" fill="#6A686E"/>
<path fill-rule="evenodd" clip-rule="evenodd" d="M151.477 35.8619C151.477 37.2381 150.572 38.3714 149.007 38.3714C147.526 38.3714 146.538 37.1571 146.538 35.781C146.538 34.4048 147.443 33.2714 149.007 33.2714C150.489 33.1905 151.477 34.4048 151.477 35.8619ZM149.09 30.9238C146.126 30.9238 143.986 33.1095 143.986 35.781C143.986 38.4524 146.126 40.5571 149.09 40.5571C152.053 40.5571 154.194 38.3714 154.194 35.7C154.112 33.1095 151.971 30.9238 149.09 30.9238Z" fill="#6A686E"/>
<path fill-rule="evenodd" clip-rule="evenodd" d="M161.109 31.0857L158.969 37.319L156.828 31.0857H154.029L157.734 40.4762H160.203L163.908 31.0857H161.109Z" fill="#6A686E"/>
<path fill-rule="evenodd" clip-rule="evenodd" d="M169.918 37.1571C169.918 38.1286 169.094 38.7762 167.777 38.7762C166.872 38.7762 166.295 38.3714 166.295 37.6429C166.295 36.8333 167.036 36.3476 168.189 36.3476C168.847 36.3476 169.424 36.5095 169.918 36.6714V37.1571ZM168.271 31.0048C166.625 31.0048 165.637 31.3286 164.567 31.7333L165.225 33.7571C166.048 33.4333 166.789 33.2714 167.86 33.2714C169.177 33.2714 169.918 33.919 169.918 34.9714V35.1333C169.259 34.8905 168.518 34.7286 167.613 34.7286C165.39 34.7286 163.826 35.7 163.826 37.7238C163.826 39.5857 165.308 40.5571 167.036 40.5571C168.354 40.5571 169.259 40.0714 169.918 39.3429V40.3143H172.552V34.8905C172.552 33.6762 172.223 32.6238 171.564 31.8952C170.741 31.4095 169.753 31.0048 168.271 31.0048Z" fill="#6A686E"/>
<path fill-rule="evenodd" clip-rule="evenodd" d="M178.644 38.3714C177.162 38.3714 176.257 37.2381 176.257 35.7809C176.257 34.4048 177.245 33.2714 178.562 33.2714C179.55 33.2714 180.126 33.6762 180.702 34.3238L182.349 32.6238C181.443 31.6524 180.373 31.0857 178.562 31.0857C175.68 31.0857 173.622 33.2714 173.622 35.9429C173.622 38.1286 175.022 39.9095 177.08 40.5571L175.598 42.6619L177.821 43.5524L178.973 40.719C180.62 40.6381 181.525 39.9095 182.431 39.019L180.867 37.4809C180.208 37.9667 179.55 38.3714 178.644 38.3714Z" fill="#6A686E"/>
<path fill-rule="evenodd" clip-rule="evenodd" d="M189.017 37.1571C189.017 38.1286 188.194 38.7762 186.877 38.7762C185.971 38.7762 185.395 38.3714 185.395 37.6429C185.395 36.8333 186.136 36.3476 187.288 36.3476C187.947 36.3476 188.523 36.5095 189.017 36.6714V37.1571ZM187.371 31.0048C185.724 31.0048 184.736 31.3286 183.666 31.7333L184.325 33.7571C185.148 33.4333 185.889 33.2714 186.959 33.2714C188.276 33.2714 189.017 33.919 189.017 34.9714V35.1333C188.358 34.8905 187.618 34.7286 186.712 34.7286C184.489 34.7286 182.925 35.7 182.925 37.7238C182.925 39.5857 184.407 40.5571 186.136 40.5571C187.453 40.5571 188.358 40.0714 189.017 39.3429V40.3143H191.651V34.8905C191.651 33.6762 191.322 32.6238 190.664 31.8952C189.923 31.4095 188.852 31.0048 187.371 31.0048Z" fill="#6A686E"/>
<path fill-rule="evenodd" clip-rule="evenodd" d="M183.831 29.8714L185.23 30.2762C185.477 29.7095 185.724 29.3857 186.218 29.3857C186.877 29.3857 187.782 30.0333 188.852 30.0333C190.087 30.0333 190.663 29.0619 191.075 27.6048L189.676 27.2C189.429 27.7667 189.182 28.0095 188.688 28.0095C188.029 28.0095 187.124 27.3619 186.053 27.3619C184.818 27.4429 184.242 28.4143 183.831 29.8714Z" fill="#6A686E"/>
<path fill-rule="evenodd" clip-rule="evenodd" d="M200.378 35.8619C200.378 37.2381 199.472 38.3714 197.908 38.3714C196.426 38.3714 195.438 37.1571 195.438 35.781C195.438 34.4048 196.344 33.2714 197.908 33.2714C199.308 33.1905 200.378 34.4048 200.378 35.8619ZM197.908 30.9238C194.944 30.9238 192.804 33.1095 192.804 35.781C192.804 38.4524 194.944 40.5571 197.908 40.5571C200.872 40.5571 203.012 38.3714 203.012 35.7C203.012 33.1095 200.789 30.9238 197.908 30.9238Z" fill="#6A686E"/>
<path d="M103.811 60.7952H106.775V59.581H103.811V58.3667H107.186V57.1524H102.412V63.3048H107.186V62.0905H103.811V60.7952Z" fill="#6A686E"/>
<path d="M113.608 57.1524H111.138V63.3048H113.608C115.583 63.3048 116.901 61.9286 116.901 60.2286C116.901 58.4476 115.583 57.1524 113.608 57.1524ZM115.501 60.2286C115.501 61.281 114.76 62.0905 113.608 62.0905H112.537V58.3667H113.608C114.678 58.3667 115.501 59.0952 115.501 60.2286Z" fill="#6A686E"/>
<path d="M122.252 57.1524H120.852V63.3048H122.252V57.1524Z" fill="#6A686E"/>
<path d="M129.496 62.1714C128.426 62.1714 127.685 61.281 127.685 60.2286C127.685 59.1762 128.426 58.2857 129.496 58.2857C130.155 58.2857 130.649 58.5286 131.061 59.0143L131.966 58.0429C131.39 57.4762 130.649 57.0714 129.496 57.0714C127.603 57.0714 126.203 58.5286 126.203 60.2286C126.203 61.7667 127.191 62.981 128.673 63.3048L127.932 64.3571L129.085 64.8429L129.661 63.3857C130.731 63.3048 131.39 62.9 131.966 62.3333L131.061 61.4429C130.649 61.8476 130.237 62.1714 129.496 62.1714Z" fill="#6A686E"/>
<path d="M137.976 56.2619C138.305 56.2619 138.799 56.5857 139.293 56.5857C139.952 56.5857 140.199 56.1 140.363 55.3714L139.622 55.1286C139.458 55.3714 139.375 55.5333 139.128 55.5333C138.799 55.5333 138.305 55.2095 137.811 55.2095C137.153 55.2095 136.906 55.6952 136.741 56.4238L137.482 56.6667C137.564 56.4238 137.729 56.2619 137.976 56.2619Z" fill="#6A686E"/>
<path d="M137.976 57.0714L135.259 63.3048H136.659L137.235 61.9286H139.869L140.445 63.3048H141.845L139.128 57.0714H137.976ZM137.729 60.7143L138.552 58.6905L139.375 60.7143H137.729Z" fill="#6A686E"/>
<path d="M148.596 56.9905C146.62 56.9905 145.22 58.4476 145.22 60.1476C145.22 61.9286 146.62 63.3048 148.513 63.3048C150.407 63.3048 151.889 61.8476 151.889 60.1476C151.971 58.4476 150.571 56.9905 148.596 56.9905ZM150.489 60.2286C150.489 61.281 149.748 62.1714 148.596 62.1714C147.443 62.1714 146.702 61.281 146.702 60.2286C146.702 59.1762 147.443 58.2857 148.596 58.2857C149.748 58.2857 150.489 59.1762 150.489 60.2286Z" fill="#6A686E"/>
<path d="M163.826 61.3619C164.896 60.5524 165.472 59.9857 165.472 59.0143C165.472 57.881 164.649 57.1524 163.332 57.1524C162.179 57.1524 161.603 57.6381 161.027 58.4476L162.015 59.1762C162.508 58.6095 162.838 58.3667 163.332 58.3667C163.826 58.3667 164.155 58.6095 164.155 59.1762C164.155 59.6619 163.826 59.9857 163.085 60.6333L161.027 62.3333V63.3857H165.637V62.2524H162.92L163.826 61.3619Z" fill="#6A686E"/>
<path d="M180.373 61.3619C181.443 60.5524 182.019 59.9857 182.019 59.0143C182.019 57.881 181.196 57.1524 179.879 57.1524C178.726 57.1524 178.15 57.6381 177.574 58.4476L178.562 59.1762C179.056 58.6095 179.385 58.3667 179.879 58.3667C180.373 58.3667 180.702 58.6095 180.702 59.1762C180.702 59.6619 180.373 59.9857 179.632 60.6333L177.574 62.3333V63.3857H182.184V62.2524H179.467L180.373 61.3619Z" fill="#6A686E"/>
<path d="M171.976 56.9905C170.329 56.9905 169.177 58.3667 169.177 60.1476C169.177 61.9286 170.247 63.3048 171.976 63.3048C173.622 63.3048 174.775 61.9286 174.775 60.1476C174.775 58.3667 173.705 56.9905 171.976 56.9905ZM173.375 60.2286C173.375 61.3619 172.881 62.1714 171.976 62.1714C171.153 62.1714 170.576 61.3619 170.576 60.2286C170.576 59.0952 171.153 58.2857 171.976 58.2857C172.799 58.2048 173.375 59.0952 173.375 60.2286Z" fill="#6A686E"/>
<path d="M187.206 56.9905C185.559 56.9905 184.407 58.3667 184.407 60.1476C184.407 61.9286 185.477 63.3048 187.206 63.3048C188.852 63.3048 190.005 61.9286 190.005 60.1476C190.005 58.3667 188.852 56.9905 187.206 56.9905ZM188.605 60.2286C188.605 61.3619 188.111 62.1714 187.206 62.1714C186.3 62.1714 185.806 61.3619 185.806 60.2286C185.806 59.0952 186.383 58.2857 187.206 58.2857C188.029 58.2048 188.605 59.0952 188.605 60.2286Z" fill="#6A686E"/>
<path d="M192.475 64.4381H193.627L197.579 56.2619H196.426L192.475 64.4381Z" fill="#6A686E"/>
<path d="M203.342 61.3619C204.412 60.5524 204.988 59.9857 204.988 59.0143C204.988 57.881 204.165 57.1524 202.848 57.1524C201.695 57.1524 201.119 57.6381 200.542 58.4476L201.53 59.1762C202.024 58.6095 202.354 58.3667 202.848 58.3667C203.341 58.3667 203.671 58.6095 203.671 59.1762C203.671 59.6619 203.342 59.9857 202.601 60.6333L200.542 62.3333V63.3857H205.153V62.2524H202.436L203.342 61.3619Z" fill="#6A686E"/>
<path d="M219.559 61.3619C220.63 60.5524 221.206 59.9857 221.206 59.0143C221.206 57.881 220.383 57.1524 219.065 57.1524C217.913 57.1524 217.337 57.6381 216.76 58.4476L217.748 59.1762C218.242 58.6095 218.571 58.3667 219.065 58.3667C219.559 58.3667 219.889 58.6095 219.889 59.1762C219.889 59.6619 219.559 59.9857 218.818 60.6333L216.76 62.3333V63.3857H221.37V62.2524H218.654L219.559 61.3619Z" fill="#6A686E"/>
<path d="M211.491 56.9905C209.845 56.9905 208.692 58.3667 208.692 60.1476C208.692 61.9286 209.763 63.3048 211.491 63.3048C213.138 63.3048 214.29 61.9286 214.29 60.1476C214.29 58.3667 213.138 56.9905 211.491 56.9905ZM212.891 60.2286C212.891 61.3619 212.397 62.1714 211.491 62.1714C210.668 62.1714 210.092 61.3619 210.092 60.2286C210.092 59.0952 210.668 58.2857 211.409 58.2857C212.315 58.2048 212.891 59.0952 212.891 60.2286Z" fill="#6A686E"/>
<path d="M225.981 57.0714L224.169 57.6381L224.416 58.6905L225.569 58.4476V63.3048H226.886V57.0714H225.981Z" fill="#6A686E"/>
</g>
<defs>
<clipPath id="clip0">
<rect width="238" height="68" fill="white"/>
</clipPath>
</defs>
</svg>
