<svg width="290" height="84" viewBox="0 0 290 84" fill="none" xmlns="http://www.w3.org/2000/svg">
<g clip-path="url(#clip0)">
<path d="M64 0.9C67.7 1.4 70.8 2.3 73.4 3.5C75.3 4.3 76.9 5.3 78.4 6.4C79.2 7.1 79.9 7.9 80.6 8.7C81.8 10.3 82.6 12.2 83 14.4C84.2 21.2 77.5 31.6 64.7 36.1C55.1 39.4 47.1 37.3 42.4 35.4C41 34.9 39.9 34.4 39.1 34C38.1 33.6 37.5 35.9 39.1 38.5C39.6 39.3 40.4 40.1 41.4 40.9C39.9 39.8 39 38.6 38.5 37.5C38.7 38 39 38.5 39.2 39C39.9 40.6 41.5 42.4 44.3 43.9C45 44.3 45.7 44.6 46.5 44.9C57.5 48.9 77.1 44.5 86.7 34C94.6 25.4 94.3 15.2 86.3 8.2C86 8 85.7 7.7 85.4 7.5C85.5 7.6 85.6 7.7 85.7 7.8C85.4 7.5 85.1 7.2 84.7 7C82 4.7 78.1 2.9 73.5 1.7C72.2 1.3 70.8 1 69.4 0.8C66.7 0.3 63.7 0 60.6 0C56.7 0 53 0.5 48.8 1.2C48.9 1.3 48.7 1.1 48.8 1.2C54.8 0.3 59.8 0.4 64 0.9Z" fill="white"/>
<path d="M62.9999 14.1C62.2999 13.1 61.2999 12.2 60.4999 11.7C59.6999 11.2 58.6999 10.8 57.4999 10.5C56.8999 10.4 56.2999 10.2 55.5999 10.1C54.6999 10 53.7999 9.90002 52.7999 9.90002H52.6999C44.2999 9.90002 31.4999 14.4 23.5999 21.9C13.8999 31.1 9.69989 44.1 13.2999 55.4C13.1999 55.2 13.1999 54.9 13.0999 54.7C13.1999 55.1 13.2999 55.5 13.3999 55.9C13.4999 56.3 13.5999 56.6 13.6999 57C15.8999 63.8 21.0999 70 28.4999 75C34.2999 78.9 41.3999 82 49.3999 83.9H55.0999C46.3999 81.4 41.4999 77.9 35.8999 74.3C33.6999 72.9 31.6999 71.3 29.9999 69.7C27.7999 67.7 25.9999 65.7 24.3999 63.5C24.2999 63.4 24.1999 63.3 24.1999 63.1C22.3999 60.6 20.9999 58.1 19.9999 55.4C18.6999 51.2 18.2999 46.4 19.3999 40.7C20.9999 31.9 29.5999 20.5 40.4999 16.1C50.5999 12 59.2999 15 62.7999 16.2C63.6999 16.8 64.0999 15.6 62.9999 14.1Z" fill="white"/>
<path d="M26.0998 45.7C26.9998 48.1 29.2998 52.5 34.5998 56.1C34.9998 56.4 35.4998 56.7 35.9998 57C48.7998 64.5 67.6998 63.9 84.8998 55.6C93.4998 51.5 99.4998 46.3 103.8 39.2C109.7 29.6 109 19.3 108.6 18.9C108.6 19.4 108.6 19.8 108.6 20.2C108.2 28.5 102.3 35.1 94.7998 40.1C86.6998 45.5 77.6998 49.3 63.4998 50.4C55.6998 51 46.9998 49.5 40.5998 46.1C39.5998 45.6 38.5998 45 37.7998 44.3C36.0998 43.1 34.6998 41.7 33.6998 40.2C33.3998 39.8 33.1998 39.3 32.8998 38.8C32.7998 38.7 32.7998 38.5 32.7998 38.4C30.5998 30.5 38.5998 22.4 41.4998 19.6C42.1998 19 42.8998 18.7 41.7998 18.3C41.4998 18.2 41.1998 18.2 40.9998 18.2C40.3998 18.2 39.8998 18.3 39.5998 18.4C37.3998 19 32.9998 21.2 29.3998 25.6C26.6998 28.9 25.2998 32 24.7998 35.2V40.2C24.9998 41.4 25.1998 42.6 25.4998 43.9C25.7998 45.2 26.1998 46.2 26.0998 45.7Z" fill="white"/>
<path d="M77.0999 15C75.8999 11.8 73.4999 9.6 71.0999 8.1C69.8999 7.3 68.5999 6.6 67.1999 6.1C66.5999 5.9 65.9999 5.7 65.3999 5.5C65.1999 5.5 65.0999 5.4 64.8999 5.4C64.4999 5.3 64.1999 5.2 64.1999 5.2C54.8999 3.1 42.0999 5.1 30.4999 11.1C21.2999 15.9 12.0999 24.2 5.5999 34.2C3.2999 37.8 1.4999 42.4 -9.76548e-05 46.3C-9.76548e-05 46.7 -0.100098 46.2 -0.100098 46.6C5.0999 34.5 12.6999 26 20.1999 20.3C26.8999 15.2 33.6999 11.5 43.3999 9.3C48.8999 8.1 55.3999 8 60.5999 9.4C63.7999 10.3 66.5999 11.7 68.3999 13.6C68.4999 13.7 68.4999 13.8 68.5999 13.8C72.2999 19.4 66.5999 25.7 63.3999 29.3C63.2999 29.4 63.2999 29.5 63.1999 29.5C61.9999 30.6 60.0999 31.2 61.0999 32C62.1999 32.9 64.4999 32.7 65.1999 32.6C67.8999 32.2 72.5999 30.2 75.7999 25.7C78.0999 22.5 78.4999 18.5 77.0999 15Z" fill="white"/>
<path fill-rule="evenodd" clip-rule="evenodd" d="M133.8 18.1C133.8 19.4 132.8 20.4 131.2 20.4H128.6V15.8H131.2C132.8 15.8 133.8 16.6 133.8 18.1ZM131.4 12.8H125.3V27.8H128.6V23.3H131.1C134.5 23.3 137.2 21.5 137.2 18C137.2 14.9 135 12.8 131.4 12.8Z" fill="white"/>
<path fill-rule="evenodd" clip-rule="evenodd" d="M141.7 23.5C141.7 20.8 143 19.4 145.2 19.4H145.4V16C143.5 15.9 142.4 16.9 141.7 18.5V16.2H138.4V27.7H141.7V23.5Z" fill="white"/>
<path fill-rule="evenodd" clip-rule="evenodd" d="M151.7 18.7C153.1 18.7 153.9 19.7 154.1 21.1H149.2C149.5 19.7 150.3 18.7 151.7 18.7ZM152.1 25.4C150.6 25.4 149.6 24.6 149.3 23.1H157.3C157.3 22.8 157.3 22.5 157.3 22.2C157.3 18.9 155.5 16 151.7 16C148.4 16 146 18.7 146 22C146 25.5 148.5 27.9 152 27.9C154.1 27.9 155.6 27.1 156.7 25.8L154.8 24.2C153.9 25.1 153.2 25.4 152.1 25.4Z" fill="white"/>
<path fill-rule="evenodd" clip-rule="evenodd" d="M151.6 13.6L153.3 15H155.8L153.2 11.7H150.1L147.5 15H150L151.6 13.6Z" fill="white"/>
<path fill-rule="evenodd" clip-rule="evenodd" d="M166 21.4V27.8H169.3V21.4C169.3 19.9 170 19.1 171.3 19.1C172.5 19.1 173.2 19.9 173.2 21.4V27.8H176.5V20.3C176.5 17.5 175 16.1 172.6 16.1C171 16.1 169.8 16.7 168.8 17.9C168.2 16.7 167.1 16.1 165.6 16.1C163.9 16.1 163 17 162.2 17.9V16.3H158.9V27.8H162.2V21.4C162.2 19.9 162.9 19.1 164.2 19.1C165.3 19 166 19.8 166 21.4Z" fill="white"/>
<path d="M181.9 12.1H178.5V15H181.9V12.1Z" fill="white"/>
<path d="M181.8 16.3H178.5V27.8H181.8V16.3Z" fill="white"/>
<path fill-rule="evenodd" clip-rule="evenodd" d="M186.7 22C186.7 20.3 187.8 18.9 189.7 18.9C191.5 18.9 192.7 20.4 192.7 22.1C192.7 23.8 191.6 25.2 189.7 25.2C187.9 25.2 186.7 23.8 186.7 22ZM189.7 28C193.3 28 195.9 25.3 195.9 22C195.9 18.7 193.3 16.1 189.7 16.1C186.1 16.1 183.5 18.8 183.5 22.1C183.5 25.4 186.1 28 189.7 28Z" fill="white"/>
<path fill-rule="evenodd" clip-rule="evenodd" d="M206.6 18.2L213.9 27.8H216.7V12.8H213.4V22L206.4 12.8H203.4V27.8H206.6V18.2Z" fill="white"/>
<path fill-rule="evenodd" clip-rule="evenodd" d="M221.6 24.3C221.6 23.3 222.5 22.7 223.9 22.7C224.7 22.7 225.4 22.9 226 23.1V23.7C226 24.9 225 25.7 223.4 25.7C222.3 25.7 221.6 25.2 221.6 24.3ZM222.4 28C224 28 225.1 27.4 225.9 26.5V27.7H229V21C229 19.5 228.6 18.2 227.8 17.3C227 16.5 225.7 16 223.9 16C222 16 220.7 16.4 219.4 16.9L220.2 19.4C221.2 19 222.1 18.8 223.4 18.8C225 18.8 225.9 19.6 225.9 20.9V21.1C225.1 20.8 224.3 20.6 223.1 20.6C220.4 20.6 218.5 21.8 218.5 24.3C218.4 26.8 220.2 28 222.4 28Z" fill="white"/>
<path fill-rule="evenodd" clip-rule="evenodd" d="M236.4 28C238.7 28 240 27.1 241.1 25.9L239.2 24C238.4 24.8 237.7 25.2 236.6 25.2C234.8 25.2 233.7 23.8 233.7 22C233.7 20.3 234.9 18.9 236.5 18.9C237.7 18.9 238.4 19.4 239.1 20.2L241.1 18.1C240 16.9 238.7 16.2 236.5 16.2C233 16.2 230.5 18.9 230.5 22.2C230.4 25.4 232.9 28 236.4 28Z" fill="white"/>
<path d="M245.8 12.1H242.4V15H245.8V12.1Z" fill="white"/>
<path d="M245.8 16.3H242.5V27.8H245.8V16.3Z" fill="white"/>
<path fill-rule="evenodd" clip-rule="evenodd" d="M256.6 22.1C256.6 23.8 255.5 25.2 253.6 25.2C251.8 25.2 250.6 23.7 250.6 22C250.6 20.3 251.7 18.9 253.6 18.9C255.4 18.9 256.6 20.4 256.6 22.1ZM253.7 16.1C250.1 16.1 247.5 18.8 247.5 22.1C247.5 25.4 250.1 28 253.7 28C257.3 28 259.9 25.3 259.9 22C259.9 18.7 257.2 16.1 253.7 16.1Z" fill="white"/>
<path fill-rule="evenodd" clip-rule="evenodd" d="M268 16.1C266.4 16.1 265.4 17 264.6 17.9V16.3H261.3V27.8H264.6V21.4C264.6 19.9 265.4 19.1 266.6 19.1C267.8 19.1 268.6 19.9 268.6 21.4V27.8H271.9V20.4C271.9 17.7 270.5 16.1 268 16.1Z" fill="white"/>
<path fill-rule="evenodd" clip-rule="evenodd" d="M280.7 23.7C280.7 24.9 279.7 25.7 278.1 25.7C277 25.7 276.3 25.2 276.3 24.3C276.3 23.3 277.2 22.7 278.6 22.7C279.4 22.7 280.1 22.9 280.7 23.1V23.7ZM278.7 16.2C276.7 16.2 275.5 16.6 274.2 17.1L275 19.6C276.1 19.2 276.9 19 278.2 19C279.8 19 280.7 19.7 280.7 21.1V21.3C279.9 21 279 20.8 277.9 20.8C275.2 20.8 273.3 22 273.3 24.5C273.3 26.8 275.1 28 277.2 28C278.8 28 279.9 27.4 280.7 26.5V27.7H283.9V21C283.9 19.5 283.5 18.2 282.7 17.3C281.7 16.6 280.4 16.2 278.7 16.2Z" fill="white"/>
<path d="M289.2 12.1H285.9V27.7H289.2V12.1Z" fill="white"/>
<path fill-rule="evenodd" clip-rule="evenodd" d="M133.3 44.2C133.3 46.1 132 47.4 130.5 47.4C129 47.4 127.7 46.1 127.7 44.2C127.7 42.3 129 41 130.5 41C132 41 133.3 42.3 133.3 44.2ZM133.3 39.9C132.5 39 131.5 38.2 129.7 38.2C127 38.2 124.5 40.3 124.5 44.1C124.5 47.9 127 50 129.7 50C131.4 50 132.5 49.2 133.3 48.1V49.8H136.6V34.3H133.3V39.9Z" fill="white"/>
<path fill-rule="evenodd" clip-rule="evenodd" d="M141.2 43.3C141.5 41.8 142.3 40.9 143.7 40.9C145.1 40.9 145.9 41.9 146.1 43.3H141.2ZM143.7 38.2C140.4 38.2 138 40.9 138 44.2C138 47.7 140.6 50.1 144 50.1C146.1 50.1 147.6 49.3 148.7 48L146.8 46.3C145.9 47.1 145.1 47.5 144 47.5C142.5 47.5 141.5 46.7 141.2 45.2H149.2C149.2 44.9 149.2 44.6 149.2 44.3C149.3 41.2 147.6 38.2 143.7 38.2Z" fill="white"/>
<path d="M160.3 34.9H157V49.9H160.3V34.9Z" fill="white"/>
<path fill-rule="evenodd" clip-rule="evenodd" d="M169.5 38.2C167.9 38.2 166.9 39.1 166.1 40V38.4H162.8V49.9H166.1V43.5C166.1 42 166.9 41.2 168.1 41.2C169.3 41.2 170.1 42 170.1 43.5V49.9H173.4V42.5C173.4 39.9 171.9 38.2 169.5 38.2Z" fill="white"/>
<path fill-rule="evenodd" clip-rule="evenodd" d="M184 44.3C184 46 182.9 47.4 181 47.4C179.2 47.4 178 45.9 178 44.2C178 42.5 179.1 41.1 181 41.1C182.8 41 184 42.5 184 44.3ZM181.1 38.2C177.5 38.2 174.9 40.9 174.9 44.2C174.9 47.5 177.5 50.1 181.1 50.1C184.7 50.1 187.3 47.4 187.3 44.1C187.2 40.9 184.6 38.2 181.1 38.2Z" fill="white"/>
<path fill-rule="evenodd" clip-rule="evenodd" d="M195.7 38.4L193.1 46.1L190.5 38.4H187.1L191.6 50H194.6L199.1 38.4H195.7Z" fill="white"/>
<path fill-rule="evenodd" clip-rule="evenodd" d="M206.4 45.9C206.4 47.1 205.4 47.9 203.8 47.9C202.7 47.9 202 47.4 202 46.5C202 45.5 202.9 44.9 204.3 44.9C205.1 44.9 205.8 45.1 206.4 45.3V45.9ZM204.4 38.3C202.4 38.3 201.2 38.7 199.9 39.2L200.7 41.7C201.7 41.3 202.6 41.1 203.9 41.1C205.5 41.1 206.4 41.9 206.4 43.2V43.4C205.6 43.1 204.7 42.9 203.6 42.9C200.9 42.9 199 44.1 199 46.6C199 48.9 200.8 50.1 202.9 50.1C204.5 50.1 205.6 49.5 206.4 48.6V49.8H209.6V43.1C209.6 41.6 209.2 40.3 208.4 39.4C207.4 38.8 206.2 38.3 204.4 38.3Z" fill="white"/>
<path fill-rule="evenodd" clip-rule="evenodd" d="M217 47.4C215.2 47.4 214.1 46 214.1 44.2C214.1 42.5 215.3 41.1 216.9 41.1C218.1 41.1 218.8 41.6 219.5 42.4L221.5 40.3C220.4 39.1 219.1 38.4 216.9 38.4C213.4 38.4 210.9 41.1 210.9 44.4C210.9 47.1 212.6 49.3 215.1 50.1L213.3 52.7L216 53.8L217.4 50.3C219.4 50.2 220.5 49.3 221.6 48.2L219.7 46.3C218.9 46.9 218.1 47.4 217 47.4Z" fill="white"/>
<path fill-rule="evenodd" clip-rule="evenodd" d="M229.6 45.9C229.6 47.1 228.6 47.9 227 47.9C225.9 47.9 225.2 47.4 225.2 46.5C225.2 45.5 226.1 44.9 227.5 44.9C228.3 44.9 229 45.1 229.6 45.3V45.9ZM227.6 38.3C225.6 38.3 224.4 38.7 223.1 39.2L223.9 41.7C224.9 41.3 225.8 41.1 227.1 41.1C228.7 41.1 229.6 41.9 229.6 43.2V43.4C228.8 43.1 227.9 42.9 226.8 42.9C224.1 42.9 222.2 44.1 222.2 46.6C222.2 48.9 224 50.1 226.1 50.1C227.7 50.1 228.8 49.5 229.6 48.6V49.8H232.8V43.1C232.8 41.6 232.4 40.3 231.6 39.4C230.7 38.8 229.4 38.3 227.6 38.3Z" fill="white"/>
<path fill-rule="evenodd" clip-rule="evenodd" d="M223.3 36.9L225 37.4C225.3 36.7 225.6 36.3 226.2 36.3C227 36.3 228.1 37.1 229.4 37.1C230.9 37.1 231.6 35.9 232.1 34.1L230.4 33.6C230.1 34.3 229.8 34.6 229.2 34.6C228.4 34.6 227.3 33.8 226 33.8C224.5 33.9 223.8 35.1 223.3 36.9Z" fill="white"/>
<path fill-rule="evenodd" clip-rule="evenodd" d="M243.4 44.3C243.4 46 242.3 47.4 240.4 47.4C238.6 47.4 237.4 45.9 237.4 44.2C237.4 42.5 238.5 41.1 240.4 41.1C242.1 41 243.4 42.5 243.4 44.3ZM240.4 38.2C236.8 38.2 234.2 40.9 234.2 44.2C234.2 47.5 236.8 50.1 240.4 50.1C244 50.1 246.6 47.4 246.6 44.1C246.6 40.9 243.9 38.2 240.4 38.2Z" fill="white"/>
<path d="M126.1 75.1H129.7V73.6H126.1V72.1H130.2V70.6H124.4V78.2H130.2V76.7H126.1V75.1Z" fill="white"/>
<path d="M138 70.6H135V78.2H138C140.4 78.2 142 76.5 142 74.4C142 72.2 140.4 70.6 138 70.6ZM140.3 74.4C140.3 75.7 139.4 76.7 138 76.7H136.7V72.1H138C139.3 72.1 140.3 73 140.3 74.4Z" fill="white"/>
<path d="M148.5 70.6H146.8V78.2H148.5V70.6Z" fill="white"/>
<path d="M157.3 76.8C156 76.8 155.1 75.7 155.1 74.4C155.1 73.1 156 72 157.3 72C158.1 72 158.7 72.3 159.2 72.9L160.3 71.7C159.6 71 158.7 70.5 157.3 70.5C155 70.5 153.3 72.3 153.3 74.4C153.3 76.3 154.5 77.8 156.3 78.2L155.4 79.5L156.8 80.1L157.5 78.3C158.8 78.2 159.6 77.7 160.3 77L159.2 75.9C158.7 76.4 158.2 76.8 157.3 76.8Z" fill="white"/>
<path d="M167.6 69.5C168 69.5 168.6 69.9 169.2 69.9C170 69.9 170.3 69.3 170.5 68.4L169.6 68.1C169.4 68.4 169.3 68.6 169 68.6C168.6 68.6 168 68.2 167.4 68.2C166.6 68.2 166.3 68.8 166.1 69.7L167 70C167.1 69.7 167.3 69.5 167.6 69.5Z" fill="white"/>
<path d="M167.6 70.5L164.3 78.2H166L166.7 76.5H169.9L170.6 78.2H172.3L169 70.5H167.6ZM167.3 75L168.3 72.5L169.3 75H167.3Z" fill="white"/>
<path d="M180.5 70.4C178.1 70.4 176.4 72.2 176.4 74.3C176.4 76.5 178.1 78.2 180.4 78.2C182.7 78.2 184.5 76.4 184.5 74.3C184.6 72.2 182.9 70.4 180.5 70.4ZM182.8 74.4C182.8 75.7 181.9 76.8 180.5 76.8C179.1 76.8 178.2 75.7 178.2 74.4C178.2 73.1 179.1 72 180.5 72C181.9 72 182.8 73.1 182.8 74.4Z" fill="white"/>
<path d="M199 75.8C200.3 74.8 201 74.1 201 72.9C201 71.5 200 70.6 198.4 70.6C197 70.6 196.3 71.2 195.6 72.2L196.8 73.1C197.4 72.4 197.8 72.1 198.4 72.1C199 72.1 199.4 72.4 199.4 73.1C199.4 73.7 199 74.1 198.1 74.9L195.6 77V78.3H201.2V76.9H197.9L199 75.8Z" fill="white"/>
<path d="M219.1 75.8C220.4 74.8 221.1 74.1 221.1 72.9C221.1 71.5 220.1 70.6 218.5 70.6C217.1 70.6 216.4 71.2 215.7 72.2L216.9 73.1C217.5 72.4 217.9 72.1 218.5 72.1C219.1 72.1 219.5 72.4 219.5 73.1C219.5 73.7 219.1 74.1 218.2 74.9L215.7 77V78.3H221.3V76.9H218L219.1 75.8Z" fill="white"/>
<path d="M208.9 70.4C206.9 70.4 205.5 72.1 205.5 74.3C205.5 76.5 206.8 78.2 208.9 78.2C210.9 78.2 212.3 76.5 212.3 74.3C212.3 72.1 211 70.4 208.9 70.4ZM210.6 74.4C210.6 75.8 210 76.8 208.9 76.8C207.9 76.8 207.2 75.8 207.2 74.4C207.2 73 207.9 72 208.9 72C209.9 71.9 210.6 73 210.6 74.4Z" fill="white"/>
<path d="M227.4 70.4C225.4 70.4 224 72.1 224 74.3C224 76.5 225.3 78.2 227.4 78.2C229.4 78.2 230.8 76.5 230.8 74.3C230.8 72.1 229.4 70.4 227.4 70.4ZM229.1 74.4C229.1 75.8 228.5 76.8 227.4 76.8C226.3 76.8 225.7 75.8 225.7 74.4C225.7 73 226.4 72 227.4 72C228.4 71.9 229.1 73 229.1 74.4Z" fill="white"/>
<path d="M233.8 79.6H235.2L240 69.5H238.6L233.8 79.6Z" fill="white"/>
<path d="M247 75.8C248.3 74.8 249 74.1 249 72.9C249 71.5 248 70.6 246.4 70.6C245 70.6 244.3 71.2 243.6 72.2L244.8 73.1C245.4 72.4 245.8 72.1 246.4 72.1C247 72.1 247.4 72.4 247.4 73.1C247.4 73.7 247 74.1 246.1 74.9L243.6 77V78.3H249.2V76.9H245.9L247 75.8Z" fill="white"/>
<path d="M266.7 75.8C268 74.8 268.7 74.1 268.7 72.9C268.7 71.5 267.7 70.6 266.1 70.6C264.7 70.6 264 71.2 263.3 72.2L264.5 73.1C265.1 72.4 265.5 72.1 266.1 72.1C266.7 72.1 267.1 72.4 267.1 73.1C267.1 73.7 266.7 74.1 265.8 74.9L263.3 77V78.3H268.9V76.9H265.6L266.7 75.8Z" fill="white"/>
<path d="M256.9 70.4C254.9 70.4 253.5 72.1 253.5 74.3C253.5 76.5 254.8 78.2 256.9 78.2C258.9 78.2 260.3 76.5 260.3 74.3C260.3 72.1 258.9 70.4 256.9 70.4ZM258.6 74.4C258.6 75.8 258 76.8 256.9 76.8C255.9 76.8 255.2 75.8 255.2 74.4C255.2 73 255.9 72 256.8 72C257.9 71.9 258.6 73 258.6 74.4Z" fill="white"/>
<path d="M274.5 70.5L272.3 71.2L272.6 72.5L274 72.2V78.2H275.6V70.5H274.5Z" fill="white"/>
</g>
<defs>
<clipPath id="clip0">
<rect width="289.1" height="84" fill="white"/>
</clipPath>
</defs>
</svg>
