<svg width="229" height="67" viewBox="0 0 229 67" fill="none" xmlns="http://www.w3.org/2000/svg">
<g clip-path="url(#clip0)">
<path d="M51.1848 1.29706C54.1037 1.68806 56.5492 2.39186 58.6003 3.33026C60.0991 3.95586 61.3613 4.73786 62.5447 5.59806C63.1758 6.14546 63.728 6.77106 64.2802 7.39666C65.2268 8.64785 65.8579 10.1337 66.1735 11.8541C67.1201 17.1716 61.8347 25.3044 51.7371 28.8234C44.1638 31.404 37.8528 29.7618 34.1451 28.276C33.0407 27.885 32.1729 27.494 31.5418 27.1812C30.753 26.8684 30.2796 28.667 31.5418 30.7002C31.9363 31.3258 32.5674 31.9514 33.3562 32.577C32.1729 31.7168 31.4629 30.7784 31.0685 29.9182C31.2263 30.3092 31.4629 30.7002 31.6207 31.0912C32.1729 32.3424 33.4351 33.75 35.644 34.923C36.1962 35.2358 36.7484 35.4704 37.3795 35.705C46.0572 38.833 61.5191 35.3922 69.0923 27.1812C75.3245 20.456 75.0878 12.4797 68.7768 7.00566C68.5401 6.84926 68.3035 6.61466 68.0668 6.45826C68.1457 6.53646 68.2246 6.61466 68.3035 6.69286C68.0668 6.45826 67.8301 6.22366 67.5146 6.06726C65.3846 4.26866 62.308 2.86106 58.6792 1.92266C57.6536 1.60986 56.5492 1.37526 55.4448 1.21886C53.3148 0.827862 50.9482 0.593262 48.5027 0.593262C45.426 0.593262 42.5072 0.984261 39.1939 1.53166C39.2728 1.60986 39.115 1.45346 39.1939 1.53166C43.9272 0.827862 47.8716 0.906061 51.1848 1.29706Z" fill="#A22A29"/>
<path d="M29.0963 58.7741C27.3608 57.6793 25.7831 56.4281 24.442 55.1769C22.7065 53.6129 21.2865 52.0489 20.1032 50.3285C20.0243 50.2503 19.9454 50.1721 19.9454 50.0157C18.5254 48.0607 17.421 46.1057 16.6321 43.9943C15.6066 40.7099 15.291 36.9563 16.1588 32.4989C17.421 25.6173 24.2053 16.7025 32.8041 13.2617C40.7717 10.0555 47.6349 12.4015 50.396 13.3399C51.1849 13.5745 51.4215 12.7143 50.5538 11.4631C50.0016 10.6811 49.2127 9.97731 48.5816 9.58631C47.9505 9.19531 47.1616 8.88251 46.215 8.64791C45.7416 8.56971 45.2683 8.41331 44.7161 8.33511C44.0061 8.25691 43.2961 8.17871 42.5072 8.17871C35.8807 8.17871 25.7831 11.6977 19.5509 17.5627C11.8989 24.7571 8.58557 34.9231 11.4255 43.7597C11.3466 43.6033 11.3466 43.3687 11.2678 43.2123C11.3466 43.5251 11.4255 43.8379 11.5044 44.1507C11.5833 44.4635 11.6622 44.6981 11.7411 45.0109C13.4766 50.3285 17.5788 55.1769 23.4164 59.0869C27.9919 62.1367 33.5929 64.5609 39.9039 66.0467H40.3773H40.9295H41.4817H42.0339H42.5861H43.1383H43.6906H44.2428H44.5583C37.3795 64.2481 33.5141 61.5893 29.0963 58.7741Z" fill="#ED6E0B"/>
<path d="M86.3688 15.4512C86.3688 15.8422 86.3688 16.155 86.3688 16.4678C86.0532 22.9584 81.3989 28.1196 75.4823 32.0296C69.0924 36.2524 61.9925 39.224 50.7905 40.0842C44.6373 40.5534 37.774 39.3804 32.7252 36.7216C31.9363 36.3306 31.1475 35.8614 30.5164 35.314C29.1753 34.3756 28.0709 33.2808 27.282 32.1078C27.0453 31.795 26.8875 31.404 26.6509 31.013C26.572 30.9348 26.572 30.7784 26.572 30.7002C24.8365 24.5224 31.1475 18.1882 33.4352 15.9986C33.9874 15.5294 34.5396 15.2948 33.6719 14.982C33.4352 14.9038 33.1986 14.9038 33.0408 14.9038C32.5675 14.9038 32.173 14.982 31.9363 15.0602C30.2008 15.5294 26.7298 17.2498 23.8898 20.6906C21.7599 23.2712 20.6554 25.6954 20.261 28.1978V32.1078C20.4188 33.0462 20.5765 33.9846 20.8132 35.0012C21.0499 35.8614 21.3654 36.6434 21.2076 36.2524C21.9176 38.1292 23.732 41.57 27.9131 44.3852C28.2286 44.6198 28.6231 44.8544 29.0175 45.089C39.1151 50.954 54.0249 50.4848 67.5935 43.9942C74.3779 40.788 79.1111 36.7216 82.5033 31.1694C87.2365 23.7404 86.6843 15.764 86.3688 15.4512Z" fill="#C51417"/>
<path d="M61.5191 12.3231C60.5725 9.8207 58.6792 8.10031 56.7859 6.92731C55.8392 6.30171 54.8137 5.75431 53.7093 5.36331C53.236 5.20691 52.7626 5.05051 52.2893 4.89411C52.1315 4.89411 52.0526 4.81591 51.8949 4.81591C51.5793 4.73771 51.3426 4.65951 51.3426 4.65951C44.0061 3.01731 33.9085 4.58131 24.7575 9.2733C17.4999 13.0269 10.2422 19.5175 5.11451 27.3375C3.3001 30.1527 1.88012 33.7499 0.696808 36.7997C0.696808 37.1125 0.61792 36.7215 0.61792 37.0343C4.72008 27.5721 10.7155 20.9251 16.6321 16.4677C21.9176 12.4795 27.2819 9.5861 34.934 7.86571C39.2728 6.92731 44.4005 6.84911 48.5027 7.94391C51.0271 8.6477 53.236 9.7425 54.6559 11.2283C54.7348 11.3065 54.7348 11.3847 54.8137 11.3847C57.7325 15.7639 53.236 20.6905 50.7115 23.5057C50.6327 23.5839 50.6327 23.6621 50.5538 23.6621C49.6071 24.5223 48.1083 24.9915 48.8971 25.6171C49.7649 26.3209 51.5793 26.1645 52.1315 26.0863C54.2615 25.7735 57.9692 24.2095 60.4936 20.6905C62.308 18.1881 62.6236 15.0601 61.5191 12.3231Z" fill="#FFD213"/>
<path fill-rule="evenodd" clip-rule="evenodd" d="M106.248 14.7476C106.248 15.7642 105.46 16.5462 104.197 16.5462H102.146V12.949H104.197C105.46 12.949 106.248 13.5746 106.248 14.7476ZM104.355 10.603H99.543V22.333H102.146V18.814H104.118C106.801 18.814 108.931 17.4064 108.931 14.6694C108.931 12.2452 107.195 10.603 104.355 10.603Z" fill="white"/>
<path fill-rule="evenodd" clip-rule="evenodd" d="M112.48 18.9705C112.48 16.8591 113.506 15.7643 115.242 15.7643H115.399V13.1055C113.9 13.0273 113.033 13.8093 112.48 15.0605V13.2619H109.877V22.2549H112.48V18.9705Z" fill="white"/>
<path fill-rule="evenodd" clip-rule="evenodd" d="M120.369 15.2169C121.474 15.2169 122.105 15.9989 122.262 17.0937H118.397C118.634 15.9989 119.265 15.2169 120.369 15.2169ZM120.685 20.4563C119.501 20.4563 118.713 19.8307 118.476 18.6577H124.787C124.787 18.4231 124.787 18.1885 124.787 17.9539C124.787 15.3733 123.367 13.1055 120.369 13.1055C117.766 13.1055 115.873 15.2169 115.873 17.7975C115.873 20.5345 117.845 22.4113 120.606 22.4113C122.262 22.4113 123.446 21.7857 124.314 20.7691L122.815 19.5179C122.105 20.2217 121.552 20.4563 120.685 20.4563Z" fill="white"/>
<path fill-rule="evenodd" clip-rule="evenodd" d="M120.29 11.2285L121.631 12.3233H123.604L121.552 9.74268H119.107L117.056 12.3233H119.028L120.29 11.2285Z" fill="white"/>
<path fill-rule="evenodd" clip-rule="evenodd" d="M131.65 17.3282V22.333H134.253V17.3282C134.253 16.1552 134.806 15.5296 135.831 15.5296C136.778 15.5296 137.33 16.1552 137.33 17.3282V22.333H139.933V16.468C139.933 14.2784 138.75 13.1836 136.857 13.1836C135.594 13.1836 134.648 13.6528 133.859 14.5912C133.386 13.6528 132.518 13.1836 131.335 13.1836C129.993 13.1836 129.283 13.8874 128.652 14.5912V13.34H126.049V22.333H128.652V17.3282C128.652 16.1552 129.205 15.5296 130.23 15.5296C131.098 15.4514 131.65 16.077 131.65 17.3282Z" fill="white"/>
<path d="M144.193 10.0557H141.511V12.3235H144.193V10.0557Z" fill="white"/>
<path d="M144.115 13.3398H141.511V22.3328H144.115V13.3398Z" fill="white"/>
<path fill-rule="evenodd" clip-rule="evenodd" d="M147.98 17.7974C147.98 16.468 148.848 15.3732 150.347 15.3732C151.767 15.3732 152.713 16.5462 152.713 17.8756C152.713 19.205 151.845 20.2998 150.347 20.2998C148.927 20.2998 147.98 19.205 147.98 17.7974ZM150.347 22.4894C153.187 22.4894 155.238 20.378 155.238 17.7974C155.238 15.2168 153.187 13.1836 150.347 13.1836C147.507 13.1836 145.456 15.295 145.456 17.8756C145.456 20.4562 147.507 22.4894 150.347 22.4894Z" fill="white"/>
<path fill-rule="evenodd" clip-rule="evenodd" d="M163.679 14.8258L169.437 22.333H171.646V10.603H169.043V17.7974L163.521 10.603H161.154V22.333H163.679V14.8258Z" fill="white"/>
<path fill-rule="evenodd" clip-rule="evenodd" d="M175.512 19.5961C175.512 18.8141 176.222 18.3449 177.326 18.3449C177.957 18.3449 178.509 18.5013 178.983 18.6577V19.1269C178.983 20.0653 178.194 20.6909 176.932 20.6909C176.064 20.6909 175.512 20.2999 175.512 19.5961ZM176.143 22.4895C177.405 22.4895 178.273 22.0203 178.904 21.3165V22.2549H181.349V17.0155C181.349 15.8425 181.034 14.8259 180.403 14.1221C179.772 13.4965 178.746 13.1055 177.326 13.1055C175.827 13.1055 174.802 13.4183 173.776 13.8093L174.407 15.7643C175.196 15.4515 175.906 15.2951 176.932 15.2951C178.194 15.2951 178.904 15.9207 178.904 16.9373V17.0937C178.273 16.8591 177.642 16.7027 176.695 16.7027C174.565 16.7027 173.066 17.6411 173.066 19.5961C172.987 21.5511 174.407 22.4895 176.143 22.4895Z" fill="white"/>
<path fill-rule="evenodd" clip-rule="evenodd" d="M187.187 22.4893C189.002 22.4893 190.027 21.7855 190.895 20.8471L189.396 19.3613C188.765 19.9869 188.213 20.2997 187.345 20.2997C185.925 20.2997 185.057 19.2049 185.057 17.7973C185.057 16.4679 186.004 15.3731 187.266 15.3731C188.213 15.3731 188.765 15.7641 189.317 16.3897L190.895 14.7475C190.027 13.8091 189.002 13.2617 187.266 13.2617C184.505 13.2617 182.533 15.3731 182.533 17.9537C182.454 20.4561 184.426 22.4893 187.187 22.4893Z" fill="white"/>
<path d="M194.603 10.0557H191.92V12.3235H194.603V10.0557Z" fill="white"/>
<path d="M194.603 13.3398H191.999V22.3328H194.603V13.3398Z" fill="white"/>
<path fill-rule="evenodd" clip-rule="evenodd" d="M203.122 17.8756C203.122 19.205 202.255 20.2998 200.756 20.2998C199.336 20.2998 198.389 19.1268 198.389 17.7974C198.389 16.468 199.257 15.3732 200.756 15.3732C202.176 15.3732 203.122 16.5462 203.122 17.8756ZM200.835 13.1836C197.995 13.1836 195.944 15.295 195.944 17.8756C195.944 20.4562 197.995 22.4894 200.835 22.4894C203.675 22.4894 205.726 20.378 205.726 17.7974C205.726 15.2168 203.596 13.1836 200.835 13.1836Z" fill="white"/>
<path fill-rule="evenodd" clip-rule="evenodd" d="M212.116 13.1836C210.853 13.1836 210.064 13.8874 209.433 14.5912V13.34H206.83V22.333H209.433V17.3282C209.433 16.1552 210.064 15.5296 211.011 15.5296C211.958 15.5296 212.589 16.1552 212.589 17.3282V22.333H215.192V16.5462C215.192 14.4348 214.088 13.1836 212.116 13.1836Z" fill="white"/>
<path fill-rule="evenodd" clip-rule="evenodd" d="M222.134 19.1267C222.134 20.0651 221.345 20.6907 220.083 20.6907C219.215 20.6907 218.663 20.2997 218.663 19.5959C218.663 18.8139 219.373 18.3447 220.478 18.3447C221.109 18.3447 221.661 18.5011 222.134 18.6575V19.1267ZM220.557 13.2617C218.979 13.2617 218.032 13.5745 217.007 13.9655L217.638 15.9205C218.505 15.6077 219.137 15.4513 220.162 15.4513C221.424 15.4513 222.134 15.9987 222.134 17.0935V17.2499C221.503 17.0153 220.793 16.8589 219.925 16.8589C217.795 16.8589 216.297 17.7973 216.297 19.7523C216.297 21.5509 217.717 22.4893 219.373 22.4893C220.635 22.4893 221.503 22.0201 222.134 21.3163V22.2547H224.659V17.0153C224.659 15.8423 224.343 14.8257 223.712 14.1219C222.923 13.5745 221.898 13.2617 220.557 13.2617Z" fill="white"/>
<path d="M228.84 10.0557H226.236V22.2549H228.84V10.0557Z" fill="white"/>
<path fill-rule="evenodd" clip-rule="evenodd" d="M105.854 35.1578C105.854 36.6436 104.828 37.6602 103.645 37.6602C102.462 37.6602 101.436 36.6436 101.436 35.1578C101.436 33.672 102.462 32.6554 103.645 32.6554C104.828 32.6554 105.854 33.672 105.854 35.1578ZM105.854 31.7952C105.223 31.0914 104.434 30.4658 103.014 30.4658C100.884 30.4658 98.9119 32.108 98.9119 35.0796C98.9119 38.0512 100.884 39.6934 103.014 39.6934C104.355 39.6934 105.223 39.0678 105.854 38.2076V39.537H108.457V27.416H105.854V31.7952Z" fill="white"/>
<path fill-rule="evenodd" clip-rule="evenodd" d="M112.086 34.454C112.323 33.281 112.954 32.5772 114.058 32.5772C115.163 32.5772 115.794 33.3592 115.952 34.454H112.086ZM114.058 30.4658C111.455 30.4658 109.562 32.5772 109.562 35.1578C109.562 37.8948 111.613 39.7716 114.295 39.7716C115.952 39.7716 117.135 39.146 118.003 38.1294L116.504 36.8C115.794 37.4256 115.163 37.7384 114.295 37.7384C113.112 37.7384 112.323 37.1128 112.086 35.9398H118.397C118.397 35.7052 118.397 35.4706 118.397 35.236C118.476 32.8118 117.135 30.4658 114.058 30.4658Z" fill="white"/>
<path d="M127.154 27.8853H124.55V39.6152H127.154V27.8853Z" fill="white"/>
<path fill-rule="evenodd" clip-rule="evenodd" d="M134.411 30.4658C133.149 30.4658 132.36 31.1696 131.729 31.8734V30.6222H129.126V39.6152H131.729V34.6104C131.729 33.4374 132.36 32.8118 133.307 32.8118C134.253 32.8118 134.885 33.4374 134.885 34.6104V39.6152H137.488V33.8284C137.488 31.7952 136.305 30.4658 134.411 30.4658Z" fill="white"/>
<path fill-rule="evenodd" clip-rule="evenodd" d="M145.85 35.236C145.85 36.5654 144.982 37.6602 143.483 37.6602C142.063 37.6602 141.117 36.4872 141.117 35.1578C141.117 33.8284 141.984 32.7336 143.483 32.7336C144.903 32.6554 145.85 33.8284 145.85 35.236ZM143.562 30.4658C140.722 30.4658 138.671 32.5772 138.671 35.1578C138.671 37.7384 140.722 39.7716 143.562 39.7716C146.402 39.7716 148.453 37.6602 148.453 35.0796C148.374 32.5772 146.323 30.4658 143.562 30.4658Z" fill="white"/>
<path fill-rule="evenodd" clip-rule="evenodd" d="M155.08 30.6221L153.029 36.6435L150.978 30.6221H148.295L151.845 39.6933H154.212L157.762 30.6221H155.08Z" fill="white"/>
<path fill-rule="evenodd" clip-rule="evenodd" d="M163.521 36.4871C163.521 37.4255 162.732 38.0511 161.47 38.0511C160.602 38.0511 160.05 37.6601 160.05 36.9563C160.05 36.1743 160.76 35.7051 161.864 35.7051C162.495 35.7051 163.047 35.8615 163.521 36.0179V36.4871ZM161.943 30.5439C160.365 30.5439 159.419 30.8567 158.393 31.2477L159.024 33.2027C159.813 32.8899 160.523 32.7335 161.549 32.7335C162.811 32.7335 163.521 33.3591 163.521 34.3757V34.5321C162.89 34.2975 162.18 34.1411 161.312 34.1411C159.182 34.1411 157.683 35.0795 157.683 37.0345C157.683 38.8331 159.103 39.7715 160.76 39.7715C162.022 39.7715 162.89 39.3023 163.521 38.5985V39.5369H166.045V34.2975C166.045 33.1245 165.73 32.1079 165.099 31.4041C164.31 30.9349 163.363 30.5439 161.943 30.5439Z" fill="white"/>
<path fill-rule="evenodd" clip-rule="evenodd" d="M171.883 37.6601C170.463 37.6601 169.595 36.5653 169.595 35.1577C169.595 33.8283 170.542 32.7335 171.804 32.7335C172.751 32.7335 173.303 33.1245 173.855 33.7501L175.433 32.1079C174.565 31.1695 173.54 30.6221 171.804 30.6221C169.043 30.6221 167.071 32.7335 167.071 35.3141C167.071 37.4255 168.412 39.1459 170.384 39.7715L168.964 41.8047L171.094 42.6649L172.198 39.9279C173.776 39.8497 174.644 39.1459 175.512 38.2857L174.013 36.7999C173.382 37.2691 172.751 37.6601 171.883 37.6601Z" fill="white"/>
<path fill-rule="evenodd" clip-rule="evenodd" d="M181.823 36.4871C181.823 37.4255 181.034 38.0511 179.772 38.0511C178.904 38.0511 178.352 37.6601 178.352 36.9563C178.352 36.1743 179.062 35.7051 180.166 35.7051C180.797 35.7051 181.349 35.8615 181.823 36.0179V36.4871ZM180.245 30.5439C178.667 30.5439 177.721 30.8567 176.695 31.2477L177.326 33.2027C178.115 32.8899 178.825 32.7335 179.851 32.7335C181.113 32.7335 181.823 33.3591 181.823 34.3757V34.5321C181.192 34.2975 180.482 34.1411 179.614 34.1411C177.484 34.1411 175.985 35.0795 175.985 37.0345C175.985 38.8331 177.405 39.7715 179.062 39.7715C180.324 39.7715 181.192 39.3023 181.823 38.5985V39.5369H184.347V34.2975C184.347 33.1245 184.032 32.1079 183.401 31.4041C182.691 30.9349 181.665 30.5439 180.245 30.5439Z" fill="white"/>
<path fill-rule="evenodd" clip-rule="evenodd" d="M176.853 29.4493L178.194 29.8403C178.431 29.2929 178.667 28.9801 179.141 28.9801C179.772 28.9801 180.639 29.6056 181.665 29.6056C182.848 29.6056 183.4 28.6673 183.795 27.2597L182.454 26.8687C182.217 27.4161 181.98 27.6507 181.507 27.6507C180.876 27.6507 180.008 27.0251 178.983 27.0251C177.799 27.1033 177.247 28.0417 176.853 29.4493Z" fill="white"/>
<path fill-rule="evenodd" clip-rule="evenodd" d="M192.709 35.236C192.709 36.5654 191.842 37.6602 190.343 37.6602C188.923 37.6602 187.976 36.4872 187.976 35.1578C187.976 33.8284 188.844 32.7336 190.343 32.7336C191.684 32.6554 192.709 33.8284 192.709 35.236ZM190.343 30.4658C187.503 30.4658 185.452 32.5772 185.452 35.1578C185.452 37.7384 187.503 39.7716 190.343 39.7716C193.183 39.7716 195.234 37.6602 195.234 35.0796C195.234 32.5772 193.104 30.4658 190.343 30.4658Z" fill="white"/>
<path d="M100.174 59.3217H103.014V58.1487H100.174V56.9757H103.408V55.8027H98.833V61.7459H103.408V60.5729H100.174V59.3217Z" fill="white"/>
<path d="M109.562 55.8027H107.195V61.7459H109.562C111.455 61.7459 112.717 60.4165 112.717 58.7743C112.717 57.0539 111.455 55.8027 109.562 55.8027ZM111.376 58.7743C111.376 59.7909 110.666 60.5729 109.562 60.5729H108.536V56.9757H109.562C110.587 56.9757 111.376 57.6795 111.376 58.7743Z" fill="white"/>
<path d="M117.845 55.8027H116.504V61.7459H117.845V55.8027Z" fill="white"/>
<path d="M124.787 60.6512C123.762 60.6512 123.052 59.791 123.052 58.7744C123.052 57.7578 123.762 56.8976 124.787 56.8976C125.418 56.8976 125.892 57.1322 126.286 57.6014L127.154 56.663C126.602 56.1156 125.892 55.7246 124.787 55.7246C122.973 55.7246 121.632 57.1322 121.632 58.7744C121.632 60.2602 122.578 61.4332 123.998 61.746L123.288 62.7626L124.393 63.2318L124.945 61.8242C125.97 61.746 126.602 61.355 127.154 60.8076L126.286 59.9474C125.892 60.3384 125.497 60.6512 124.787 60.6512Z" fill="white"/>
<path d="M132.913 54.9425C133.228 54.9425 133.701 55.2553 134.175 55.2553C134.806 55.2553 135.043 54.7861 135.2 54.0823L134.49 53.8477C134.333 54.0823 134.254 54.2387 134.017 54.2387C133.701 54.2387 133.228 53.9259 132.755 53.9259C132.124 53.9259 131.887 54.3951 131.729 55.0989L132.439 55.3335C132.518 55.0989 132.676 54.9425 132.913 54.9425Z" fill="white"/>
<path d="M132.912 55.7246L130.309 61.746H131.65L132.202 60.4166H134.727L135.279 61.746H136.62L134.017 55.7246H132.912ZM132.676 59.2436L133.465 57.2886L134.253 59.2436H132.676Z" fill="white"/>
<path d="M143.089 55.6465C141.196 55.6465 139.854 57.0541 139.854 58.6963C139.854 60.4167 141.196 61.7461 143.01 61.7461C144.824 61.7461 146.244 60.3385 146.244 58.6963C146.323 57.0541 144.982 55.6465 143.089 55.6465ZM144.903 58.7745C144.903 59.7911 144.193 60.6513 143.089 60.6513C141.984 60.6513 141.274 59.7911 141.274 58.7745C141.274 57.7579 141.984 56.8977 143.089 56.8977C144.193 56.8977 144.903 57.7579 144.903 58.7745Z" fill="white"/>
<path d="M157.683 59.8691C158.709 59.0871 159.261 58.5397 159.261 57.6013C159.261 56.5065 158.472 55.8027 157.21 55.8027C156.105 55.8027 155.553 56.2719 155.001 57.0539L155.948 57.7577C156.421 57.2103 156.736 56.9757 157.21 56.9757C157.683 56.9757 157.999 57.2103 157.999 57.7577C157.999 58.2269 157.683 58.5397 156.973 59.1653L155.001 60.8075V61.8241H159.419V60.7293H156.815L157.683 59.8691Z" fill="white"/>
<path d="M173.54 59.8691C174.565 59.0871 175.117 58.5397 175.117 57.6013C175.117 56.5065 174.328 55.8027 173.066 55.8027C171.962 55.8027 171.41 56.2719 170.857 57.0539L171.804 57.7577C172.277 57.2103 172.593 56.9757 173.066 56.9757C173.54 56.9757 173.855 57.2103 173.855 57.7577C173.855 58.2269 173.54 58.5397 172.83 59.1653L170.857 60.8075V61.8241H175.275V60.7293H172.672L173.54 59.8691Z" fill="white"/>
<path d="M165.493 55.6465C163.915 55.6465 162.811 56.9759 162.811 58.6963C162.811 60.4167 163.836 61.7461 165.493 61.7461C167.071 61.7461 168.175 60.4167 168.175 58.6963C168.175 56.9759 167.15 55.6465 165.493 55.6465ZM166.834 58.7745C166.834 59.8693 166.361 60.6513 165.493 60.6513C164.704 60.6513 164.152 59.8693 164.152 58.7745C164.152 57.6797 164.704 56.8977 165.493 56.8977C166.282 56.8195 166.834 57.6797 166.834 58.7745Z" fill="white"/>
<path d="M180.087 55.6465C178.509 55.6465 177.405 56.9759 177.405 58.6963C177.405 60.4167 178.431 61.7461 180.087 61.7461C181.665 61.7461 182.769 60.4167 182.769 58.6963C182.769 56.9759 181.665 55.6465 180.087 55.6465ZM181.428 58.7745C181.428 59.8693 180.955 60.6513 180.087 60.6513C179.219 60.6513 178.746 59.8693 178.746 58.7745C178.746 57.6797 179.298 56.8977 180.087 56.8977C180.876 56.8195 181.428 57.6797 181.428 58.7745Z" fill="white"/>
<path d="M185.136 62.8406H186.24L190.027 54.9424H188.923L185.136 62.8406Z" fill="white"/>
<path d="M195.549 59.8691C196.575 59.0871 197.127 58.5397 197.127 57.6013C197.127 56.5065 196.338 55.8027 195.076 55.8027C193.971 55.8027 193.419 56.2719 192.867 57.0539L193.814 57.7577C194.287 57.2103 194.602 56.9757 195.076 56.9757C195.549 56.9757 195.865 57.2103 195.865 57.7577C195.865 58.2269 195.549 58.5397 194.839 59.1653L192.867 60.8075V61.8241H197.285V60.7293H194.681L195.549 59.8691Z" fill="white"/>
<path d="M211.09 59.8691C212.116 59.0871 212.668 58.5397 212.668 57.6013C212.668 56.5065 211.879 55.8027 210.617 55.8027C209.512 55.8027 208.96 56.2719 208.408 57.0539L209.355 57.7577C209.828 57.2103 210.144 56.9757 210.617 56.9757C211.09 56.9757 211.406 57.2103 211.406 57.7577C211.406 58.2269 211.09 58.5397 210.38 59.1653L208.408 60.8075V61.8241H212.826V60.7293H210.222L211.09 59.8691Z" fill="white"/>
<path d="M203.359 55.6465C201.781 55.6465 200.677 56.9759 200.677 58.6963C200.677 60.4167 201.702 61.7461 203.359 61.7461C204.937 61.7461 206.041 60.4167 206.041 58.6963C206.041 56.9759 204.937 55.6465 203.359 55.6465ZM204.7 58.7745C204.7 59.8693 204.227 60.6513 203.359 60.6513C202.57 60.6513 202.018 59.8693 202.018 58.7745C202.018 57.6797 202.57 56.8977 203.28 56.8977C204.148 56.8195 204.7 57.6797 204.7 58.7745Z" fill="white"/>
<path d="M217.243 55.7246L215.508 56.272L215.744 57.2886L216.849 57.054V61.746H218.111V55.7246H217.243Z" fill="white"/>
</g>
<defs>
<clipPath id="clip0">
<rect width="228.064" height="65.6879" fill="white" transform="translate(0.696777 0.593262)"/>
</clipPath>
</defs>
</svg>
